<?xml version="1.0" encoding="UTF-8" standalone="no"?><!DOCTYPE svg PUBLIC "-//W3C//DTD SVG 1.1//EN" "http://www.w3.org/Graphics/SVG/1.1/DTD/svg11.dtd"><svg width="100%" height="100%" viewBox="0 0 393 334" version="1.1" xmlns="http://www.w3.org/2000/svg" xmlns:xlink="http://www.w3.org/1999/xlink" xml:space="preserve" xmlns:serif="http://www.serif.com/" style="fill-rule:evenodd;clip-rule:evenodd;stroke-linejoin:round;stroke-miterlimit:2;"><g id="OBJECT"><g><path d="M194.6,59.8c0,-1.8 0.2,-3.7 0.3,-5.5c0.4,-5.5 0.5,-11 0.3,-16.5l-9.1,0.1c0,10 0,20 -0.1,29.9c0,1.6 0.1,3.4 1.2,4.5c0.7,0.6 1.4,1 2.2,1.2c2.2,0.8 4.3,1.5 6.6,2c0,-5.1 -1.4,-10.4 -1.4,-15.7Z" style="fill:#5b383b;fill-rule:nonzero;"/><path d="M182.3,60.1c0,-1.8 0.2,-3.7 0.3,-5.5c0.4,-5.5 0.5,-10.9 0.3,-16.4l-7.1,0.1c-1.1,0 -2,0.9 -2,1.9c0,9.3 0,18.7 -0.1,28c0,1.6 0.1,3.4 1.2,4.5c0.6,0.6 1.4,1 2.2,1.2c2.2,0.8 4.3,1.5 6.6,2c-0.1,-5.2 -1.4,-10.5 -1.4,-15.8Z" style="fill:#5b383b;fill-rule:nonzero;"/><path d="M256.2,100.8c5.6,3.2 5.6,8.4 0.1,11.6l-49.4,28.7c-5.5,3.2 -14.5,3.2 -20.1,0l-49.8,-28.6c-5.6,-3.2 -5.6,-8.4 -0.1,-11.6l49.4,-28.7c5.5,-3.2 14.5,-3.2 20.1,0l49.8,28.6Z" style="fill:#faf2ed;fill-rule:nonzero;"/><path d="M260.4,106.9l0,1l-0.1,0.2c0,0.1 0,0.1 -0.1,0.2l-0.1,0.2l-0.1,0.2c0,0.1 -0.1,0.1 -0.1,0.2l-0.1,0.2l-0.1,0.2l-0.2,0.3c0,0.1 -0.1,0.1 -0.1,0.2c-0.1,0.1 -0.1,0.2 -0.2,0.3l-0.1,0.1c-0.1,0.1 -0.2,0.3 -0.4,0.4l-0.1,0.1l-0.3,0.3l-0.2,0.1l-0.2,0.2l-0.2,0.2l-0.2,0.2l-0.2,0.2l-0.2,0.2l-0.2,0.2l-0.3,0.2l-0.3,0.2l-49.3,28.5c-0.3,0.2 -0.6,0.3 -1,0.5l-0.3,0.1c-0.3,0.1 -0.6,0.3 -0.9,0.4l-0.1,0.1l-1,0.4l-0.7,0.2l-0.6,0.2l-0.8,0.2c-0.2,0 -0.4,0.1 -0.6,0.1l-0.2,0l-1,0.1l-0.3,0c-0.4,0 -0.8,0.1 -1.1,0.1l-0.2,0l-0.8,0l-0.8,0l-0.6,0l-0.7,0l-0.7,-0.1l-0.7,-0.1l-0.6,-0.1l-0.8,-0.1c-0.3,-0.1 -0.5,-0.1 -0.8,-0.2l-0.2,0l-1.1,-0.3l-0.3,-0.1c-0.3,-0.1 -0.6,-0.2 -0.9,-0.3l-0.2,-0.1c-0.3,-0.1 -0.5,-0.2 -0.8,-0.3l-0.4,-0.2c-0.4,-0.2 -0.7,-0.4 -1,-0.5l-49.8,-28.7c-2.8,-1.6 -4.2,-3.7 -4.2,-5.9l0,58.5c0,2.1 1.4,4.3 4.2,5.9l49.7,28.7c0.3,0.2 0.7,0.4 1,0.5c0.1,0.1 0.2,0.1 0.4,0.2l0.6,0.3l0.1,0l0.2,0.1l1.2,0.4l0.2,0.1l0.9,0.2l0.2,0l0.8,0.2l0.8,0.1l0.3,0.1l0.3,0l0.7,0.1l3.8,0c0.3,0 0.7,0 1,-0.1l0.5,0l1,-0.1l0.3,0l0.5,-0.1l0.8,-0.2l0.6,-0.2l0.7,-0.2l0.2,0c0.3,-0.1 0.6,-0.2 0.9,-0.3l0.1,-0.1c0.3,-0.1 0.6,-0.2 0.9,-0.4l0.3,-0.1c0.3,-0.2 0.6,-0.3 1,-0.5l49.4,-28.7l0.2,-0.1l0.2,-0.1l0.3,-0.2l0.2,-0.2l0.2,-0.2l0.2,-0.2l0.2,-0.2l0.2,-0.2l0.2,-0.2l0.1,-0.1l0.1,-0.1l0.3,-0.3l0.1,-0.1c0.1,-0.1 0.3,-0.3 0.4,-0.4l0.1,-0.1c0.1,-0.1 0.1,-0.2 0.2,-0.3c0,0 0.1,-0.1 0.1,-0.2l0.2,-0.2l0,-0.1c0,0 0,-0.1 0.1,-0.1c0,-0.1 0.1,-0.1 0.1,-0.2l0.1,-0.2c0,-0.1 0.1,-0.2 0.1,-0.2l0,-0.1l0,-0.1c0,-0.1 0.1,-0.1 0.1,-0.2l0.1,-0.2l0.1,-0.2l0,-0.1l0,-0.1l0,-0.2l0,-0.2l0,-0.2l0,-0.1l0,-0.1l0,-58.5c-0.3,0.3 -0.3,0.4 -0.2,0.4Z" style="fill:#f4d0cd;fill-rule:nonzero;"/><path d="M366.2,187.6c5.6,3.2 5.6,8.4 0.1,11.7l-49.4,28.7c-5.5,3.2 -14.5,3.2 -20.1,0l-49.7,-28.7c-5.6,-3.2 -5.6,-8.4 -0.1,-11.6l49.4,-28.7c5.5,-3.2 14.5,-3.2 20.1,0l49.7,28.6Z" style="fill:#faf2ed;fill-rule:nonzero;"/><path d="M370.4,193.7l0,1c0,0.1 0,0.1 -0.1,0.2c-0.1,0.1 0,0.1 -0.1,0.2l-0.1,0.2l-0.1,0.2l-0.1,0.2l-0.1,0.2l-0.1,0.2l-0.2,0.2l-0.1,0.2l-0.2,0.3l-0.1,0.1c-0.1,0.2 -0.2,0.3 -0.4,0.4l-0.1,0.1l-0.3,0.3l-0.2,0.2l-0.1,0.1l-0.2,0.2c-0.1,0.1 -0.1,0.1 -0.2,0.2l-0.2,0.2l-0.2,0.2l-0.2,0.2l-0.3,0.2l-0.3,0.2l-49.5,28.7c-0.3,0.2 -0.6,0.3 -1,0.5l-0.3,0.1l-0.9,0.4l-0.1,0c-0.3,0.1 -0.7,0.2 -1,0.4c-0.3,0.1 -0.5,0.1 -0.7,0.2l-0.6,0.2l-0.8,0.2l-0.5,-0.1l-0.2,0l-1,0.1l-0.3,0c-0.4,0 -0.8,0.1 -1.2,0.1l-0.2,0l-0.8,0l-0.8,0l-0.7,0l-0.7,0c-0.2,0 -0.4,0 -0.7,-0.1l-0.7,-0.1l-0.6,-0.1c-0.2,0 -0.5,-0.1 -0.8,-0.1c-0.2,-0.1 -0.5,-0.1 -0.8,-0.2l-0.2,0c-0.4,-0.1 -0.7,-0.2 -1.1,-0.3l-0.3,-0.1l-0.9,-0.3l-0.2,-0.1c-0.3,-0.1 -0.5,-0.2 -0.8,-0.3l-0.4,-0.2c-0.4,-0.2 -0.7,-0.4 -1,-0.5l-49.7,-28.7c-2.8,-1.6 -4.2,-3.7 -4.2,-5.9l0,37.7c0,2.1 1.4,4.2 4.2,5.9l49.7,28.7c0.3,0.2 0.7,0.4 1,0.5l1,0.5l0.1,0l0.2,0.1l1.2,0.4l0.2,0.1l0.9,0.2l0.2,0l0.8,0.2c0.2,0.1 0.5,0.1 0.8,0.1l0.3,0.1l0.3,0c0.2,0 0.5,0.1 0.7,0.1l3.7,0l1,-0.1l0.5,0l1,-0.1l0.3,0l0.5,-0.1l0.8,-0.2l0.6,-0.2l0.7,-0.2l0.2,0c0.3,-0.1 0.6,-0.2 0.9,-0.3l0.1,0l0.9,-0.4l0.3,-0.1c0.3,-0.2 0.7,-0.3 1,-0.5l49.4,-28.7l0.2,-0.1l0.2,-0.1l0.3,-0.2c0.1,0 0.2,-0.1 0.2,-0.2l0.2,-0.2l0.2,-0.2l0.2,-0.2l0.2,-0.2l0.2,-0.2l0.1,-0.1l0.1,-0.1l0.3,-0.3l0.1,-0.1c0.1,-0.1 0.3,-0.3 0.4,-0.4l0.1,-0.1l0.2,-0.3c0,-0.1 0.1,-0.1 0.1,-0.2l0.2,-0.2l0,-0.1l0.1,-0.1c0,-0.1 0.1,-0.1 0.1,-0.2l0.1,-0.2c0,-0.1 0.1,-0.1 0.1,-0.2l0,-0.1l0,-0.1c0,-0.1 0.1,-0.1 0.1,-0.2l0.1,-0.2l0.1,-0.2l0,-0.1l0,-0.1l0,-0.2l0,-0.2l0,-0.2l0,-0.1l0,-0.1l0,-37.7l0,0.5Z" style="fill:#f4d0cd;fill-rule:nonzero;"/><path d="M349.7,92.3l11.9,13.3l-11.9,-0.4l0,-12.9Z" style="fill:#f0b7cf;fill-rule:nonzero;"/><path d="M260,49.2l0,20.3c0,2 2.1,2.8 4.8,1.8c0.4,-0.2 0.9,-0.4 1.3,-0.6c2,-1.2 3.5,-3.1 3.5,-4.7c0,-2 -2.1,-2.8 -4.8,-1.8c-0.4,0.2 -0.9,0.4 -1.3,0.6c-0.2,0.2 -0.5,0.3 -0.7,0.5l0,-10.7l10.3,-3.8l0,14c0,2 2.1,2.8 4.8,1.8c0.4,-0.2 0.9,-0.4 1.3,-0.6c2,-1.2 3.5,-3.1 3.5,-4.7c0,-2 -2.1,-2.8 -4.8,-1.8c-0.4,0.2 -0.9,0.4 -1.3,0.6c-0.2,0.1 -0.5,0.3 -0.7,0.5l0,-10.9l0,-0.6l0,-5.7l-15.9,5.8Z" style="fill:#fff;fill-rule:nonzero;"/><path d="M178.8,163.3c-0.7,-2.1 -3.2,-2.1 -3.2,-2.1c-1.1,-0.2 -2.2,-0.2 -3.3,0c-1.6,0.3 -1.1,2.9 -1.7,5.7c-0.6,2.8 -2.8,5.8 -3,9.2c-0.1,0.5 0.1,1 0.5,1.4c0.6,2.7 6.8,2.1 8,-3.2c1.3,-5.6 2.2,-2.7 3.3,-7.5c0.3,-1.1 0.1,-2.4 -0.6,-3.5Z" style="fill:#dfe5f3;fill-rule:nonzero;"/><path d="M178,162.6c-1.8,0.7 -3.8,0.7 -5.7,0l0,-4.7l5.7,0l0,4.7Z" style="fill:#f0b7cf;fill-rule:nonzero;"/><path d="M162.6,159.5c0.1,-0.3 0.1,-0.7 0,-1c-0.3,-2.2 -1.9,-4.5 -7.6,-3.8c-2.4,0.8 -4.6,1.9 -6.7,3.3c-2.1,1.5 -4.7,1.5 -6.1,3.3c-0.5,0.6 -0.6,1.4 -0.5,2.1c-0.4,1.4 0.8,2.7 2.5,2.7l2.2,0c1.4,0 2.7,-0.5 3.7,-1.4c0.8,-0.7 1.8,-1.3 2.8,-1.5c0.8,-0.2 4.4,-0.2 6.9,-0.2c1.5,0 2.8,-1.3 2.8,-2.8l0,-0.4l0,-0.3Z" style="fill:#dfe5f3;fill-rule:nonzero;"/><path d="M159.8,156.3c-1.8,0.7 -3.8,0.7 -5.7,0l0,-4.7l5.7,0l0,4.7Z" style="fill:#f0b7cf;fill-rule:nonzero;"/><path d="M163.5,23.1c-0.1,-2.1 -1.9,-3.6 -4,-3.5c-2,0.1 -3.5,1.8 -3.5,3.8c0,2.1 1.6,3.7 3.7,3.8c2,0 3.6,-1.5 3.8,-3.5l0,-0.6Zm-5.3,0.3c0,-2.1 3.1,-2.1 3.2,0c-0.1,2.1 -3.2,2.1 -3.2,0Z" style="fill:#f0b7cf;fill-rule:nonzero;"/><path d="M48.7,128.9c-0.2,-2 -2,-3.6 -4,-3.4c-2,0.2 -3.6,2 -3.4,4c0.2,2 2,3.6 4,3.4c1.8,-0.2 3.2,-1.6 3.4,-3.4l0,-0.3c0.1,-0.1 0.1,-0.2 0,-0.3Zm-5.3,0.3c0,-2.1 3.1,-2.1 3.2,0c-0.1,2.1 -3.2,2.1 -3.2,0Z" style="fill:#f0b7cf;fill-rule:nonzero;"/><path d="M313.3,43.6c-0.2,-2 -2,-3.6 -4,-3.4c-2,0.2 -3.6,2 -3.4,4c0.2,2 2,3.6 4,3.4c1.8,-0.2 3.2,-1.6 3.4,-3.4l0,-0.6Zm-5.4,0.3c0,-2.1 3.1,-2.1 3.3,0c-0.1,2.1 -3.3,2.1 -3.3,0Z" style="fill:#65b1fc;fill-rule:nonzero;"/><path d="M282.8,123.3c-0.2,-2 -2,-3.6 -4,-3.4c-2,0.2 -3.6,2 -3.4,4c0.2,2 2,3.6 4,3.4c1.8,-0.2 3.2,-1.6 3.4,-3.4l0,-0.6Zm-5.3,0.3c0,-2.1 3.1,-2.1 3.2,0c-0.1,2.1 -3.2,2.1 -3.2,0Z" style="fill:#f0b7cf;fill-rule:nonzero;"/><path d="M240.4,244.3c-0.2,-2 -2,-3.6 -4,-3.4c-2,0.2 -3.6,2 -3.4,4c0.2,2 2,3.6 4,3.4c1.8,-0.2 3.2,-1.6 3.4,-3.4l0,-0.6Zm-5.3,0.3c0,-2.1 3.1,-2.1 3.2,0c-0.1,2.1 -3.2,2.1 -3.2,0Z" style="fill:#f0b7cf;fill-rule:nonzero;"/><path d="M241.5,25.2c-0.4,-0.4 -1.1,-0.4 -1.5,0l-0.4,0.4c-0.4,0.4 -0.3,1.1 0.1,1.5c0.4,0.4 1,0.4 1.4,0l0.4,-0.4c0.4,-0.4 0.4,-1.1 0,-1.5Z" style="fill:#65b1fc;fill-rule:nonzero;"/><path d="M237.9,28.8c-0.4,-0.4 -1.1,-0.4 -1.5,0l-0.4,0.4c-0.5,0.4 -0.5,1 -0.1,1.5c0.4,0.5 1,0.5 1.5,0.1l0.1,-0.1l0.4,-0.4c0.4,-0.4 0.4,-1.1 0,-1.5Z" style="fill:#65b1fc;fill-rule:nonzero;"/><path d="M241.5,29.3l-0.4,-0.4c-0.4,-0.4 -1.1,-0.4 -1.5,0c-0.4,0.4 -0.4,1.1 0,1.5l0.4,0.4c0.4,0.5 1,0.5 1.5,0.1c0.5,-0.4 0.5,-1 0.1,-1.5c0,-0.1 -0.1,-0.1 -0.1,-0.1Z" style="fill:#65b1fc;fill-rule:nonzero;"/><path d="M237.9,25.6l-0.4,-0.4c-0.4,-0.4 -1.1,-0.4 -1.5,0c-0.4,0.4 -0.4,1.1 0,1.5l0.4,0.4c0.4,0.4 1.1,0.3 1.5,-0.1c0.3,-0.4 0.3,-1 0,-1.4Z" style="fill:#65b1fc;fill-rule:nonzero;"/><path d="M118.5,131.1c-0.4,-0.4 -1.1,-0.4 -1.5,0l-0.4,0.4c-0.4,0.4 -0.4,1.1 0,1.5c0.4,0.4 1.1,0.4 1.5,0l0.4,-0.4c0.4,-0.5 0.4,-1.1 0,-1.5Z" style="fill:#ffe9b3;fill-rule:nonzero;"/><path d="M114.9,134.7c-0.4,-0.4 -1.1,-0.4 -1.5,0l-0.4,0.4c-0.4,0.4 -0.4,1.1 0,1.5c0.4,0.4 1.1,0.4 1.5,0l0.4,-0.4c0.4,-0.5 0.4,-1.1 0,-1.5Z" style="fill:#ffe9b3;fill-rule:nonzero;"/><path d="M118.5,135.1l-0.4,-0.4c-0.4,-0.4 -1.1,-0.4 -1.5,0c-0.4,0.4 -0.4,1.1 0,1.5l0.4,0.4c0.4,0.4 1.1,0.4 1.5,0c0.4,-0.4 0.4,-1.1 0,-1.5Z" style="fill:#ffe9b3;fill-rule:nonzero;"/><path d="M114.9,131.5l-0.4,-0.4c-0.4,-0.4 -1.1,-0.4 -1.5,0c-0.4,0.4 -0.4,1.1 0,1.5l0.4,0.4c0.4,0.4 1.1,0.4 1.5,0c0.4,-0.5 0.4,-1.1 0,-1.5Z" style="fill:#ffe9b3;fill-rule:nonzero;"/><path d="M278.8,79.5c-0.4,-0.4 -1.1,-0.4 -1.5,0l-0.4,0.4c-0.4,0.4 -0.5,1.1 -0.1,1.5c0.4,0.4 1.1,0.5 1.5,0.1l0.1,-0.1l0.4,-0.4c0.4,-0.5 0.4,-1.1 0,-1.5Z" style="fill:#ffe9b3;fill-rule:nonzero;"/><path d="M275.1,83.1c-0.4,-0.4 -1.1,-0.4 -1.5,0l-0.4,0.4c-0.4,0.4 -0.4,1.1 0,1.5c0.4,0.4 1.1,0.4 1.5,0l0.4,-0.4c0.5,-0.4 0.5,-1 0,-1.5c0.1,0 0.1,0 0,0Z" style="fill:#ffe9b3;fill-rule:nonzero;"/><path d="M278.8,83.5l-0.4,-0.4c-0.4,-0.4 -1.1,-0.5 -1.5,-0.1c-0.4,0.4 -0.5,1.1 -0.1,1.5l0.5,0.5c0.5,0.4 1.1,0.3 1.5,-0.1c0.3,-0.4 0.3,-1 0,-1.4Z" style="fill:#ffe9b3;fill-rule:nonzero;"/><path d="M275.1,79.9l-0.4,-0.4c-0.4,-0.5 -1,-0.5 -1.5,-0.1c-0.5,0.4 -0.5,1 -0.1,1.5l0.5,0.5c0.4,0.4 1.1,0.4 1.5,0c0.4,-0.4 0.4,-1.1 0,-1.5Z" style="fill:#ffe9b3;fill-rule:nonzero;"/><path d="M358.7,149.6c-0.4,-0.4 -1.1,-0.4 -1.5,0l-0.4,0.4c-0.4,0.4 -0.4,1.1 0,1.5c0.4,0.4 1.1,0.4 1.5,0l0.4,-0.4c0.4,-0.5 0.4,-1.1 0,-1.5Z" style="fill:#5b383b;fill-rule:nonzero;"/><path d="M355.1,153.2c-0.4,-0.4 -1.1,-0.4 -1.5,0l-0.4,0.4c-0.4,0.4 -0.4,1.1 0,1.5c0.4,0.4 1.1,0.4 1.5,0l0.4,-0.4c0.4,-0.5 0.4,-1.1 0,-1.5Z" style="fill:#5b383b;fill-rule:nonzero;"/><path d="M358.7,153.6l-0.4,-0.4c-0.4,-0.4 -1.1,-0.4 -1.5,0c-0.4,0.4 -0.4,1.1 0,1.5l0.4,0.4c0.4,0.4 1.1,0.4 1.5,0c0.5,-0.4 0.5,-1.1 0,-1.5Z" style="fill:#5b383b;fill-rule:nonzero;"/><path d="M355.1,150l-0.4,-0.4c-0.4,-0.4 -1.1,-0.4 -1.5,0c-0.4,0.4 -0.4,1.1 0,1.5l0.4,0.4c0.4,0.4 1.1,0.4 1.5,0c0.4,-0.4 0.4,-1.1 0,-1.5Z" style="fill:#5b383b;fill-rule:nonzero;"/><path d="M168.6,201.9c-0.4,-0.4 -1.1,-0.4 -1.5,0l-0.4,0.4c-0.4,0.4 -0.4,1.1 0,1.5c0.4,0.4 1.1,0.4 1.5,0l0.4,-0.4c0.4,-0.4 0.5,-1.1 0,-1.5l0,0Z" style="fill:#5b383b;fill-rule:nonzero;"/><path d="M164.9,205.5c-0.4,-0.4 -1.1,-0.4 -1.5,0l-0.4,0.5c-0.4,0.4 -0.4,1.1 0,1.5c0.4,0.4 1.1,0.4 1.5,0l0.4,-0.4c0.5,-0.5 0.5,-1.1 0,-1.6c0.1,0 0.1,0 0,0Z" style="fill:#5b383b;fill-rule:nonzero;"/><path d="M168.6,206l-0.4,-0.4c-0.4,-0.4 -1.1,-0.4 -1.5,0c-0.4,0.4 -0.4,1.1 0,1.5l0.4,0.4c0.4,0.4 1.1,0.4 1.5,0c0.4,-0.4 0.4,-1.1 0,-1.5Z" style="fill:#5b383b;fill-rule:nonzero;"/><path d="M164.9,202.3l-0.4,-0.4c-0.4,-0.4 -1.1,-0.4 -1.5,0c-0.4,0.4 -0.4,1.1 0,1.5l0.4,0.4c0.4,0.4 1.1,0.4 1.5,0c0.4,-0.4 0.5,-1 0,-1.5Z" style="fill:#5b383b;fill-rule:nonzero;"/><path d="M219.6,50.2l-1.6,0l0,-1.6c0,-0.6 -0.5,-1.1 -1.1,-1.1c-0.6,0 -1.1,0.5 -1.1,1.1l0,1.6l-1.6,0c-0.6,0.1 -1,0.6 -1,1.2c0,0.5 0.5,0.9 1,1l1.6,0l0,1.6c0,0.6 0.5,1.1 1.1,1.1c0.6,0 1.1,-0.5 1.1,-1.1l0,-1.6l1.6,0c0.6,0 1.1,-0.5 1.1,-1.1c-0.1,-0.6 -0.5,-1.1 -1.1,-1.1Z" style="fill:#5b383b;fill-rule:nonzero;"/><path d="M88.6,28.7l-1.6,0l0,-1.6c0,-0.6 -0.5,-1.1 -1.1,-1.1c-0.6,0 -1,0.5 -1.1,1.1l0,1.6l-1.6,0c-0.6,0.1 -1,0.6 -1,1.2c0,0.5 0.5,0.9 1,1l1.6,0l0,1.6c0,0.6 0.5,1.1 1.1,1.1c0.6,0 1,-0.5 1.1,-1.1l0,-1.6l1.6,0c0.6,-0.1 1,-0.6 1,-1.2c-0.1,-0.5 -0.5,-0.9 -1,-1Z" style="fill:#5b383b;fill-rule:nonzero;"/><path d="M349.6,119.9l-1.6,0l0,-1.6c-0.1,-0.6 -0.6,-1 -1.2,-1c-0.5,0 -0.9,0.5 -1,1l0,1.6l-1.6,0c-0.6,0 -1.1,0.5 -1.1,1.1c0,0.6 0.5,1 1.1,1.1l1.6,0l0,1.6c0.1,0.6 0.6,1 1.2,1c0.5,0 0.9,-0.5 1,-1l0,-1.7l1.6,0c0.6,0 1.1,-0.5 1.1,-1.1c-0.1,-0.5 -0.6,-1 -1.1,-1Z" style="fill:#f0b7cf;fill-rule:nonzero;"/><path d="M235.3,203.3l-1.6,0l0,-1.6c0,-0.6 -0.5,-1.1 -1.1,-1.1c-0.6,0 -1.1,0.5 -1.1,1.1l0,1.6l-1.6,0c-0.6,0.1 -1,0.6 -1,1.2c0,0.5 0.5,0.9 1,1l1.6,0l0,1.7c0,0.6 0.5,1.1 1.1,1.1c0.6,0 1.1,-0.5 1.1,-1.1l0,-1.6l1.6,0c0.6,0 1.1,-0.5 1.1,-1.1c0,-0.6 -0.5,-1.2 -1.1,-1.2Z" style="fill:#ffe9b3;fill-rule:nonzero;"/><path d="M152,247.3l-1.6,0l0,-1.6c0,-0.6 -0.5,-1.1 -1.1,-1.1c-0.6,0 -1.1,0.5 -1.1,1.1l0,1.6l-1.6,0c-0.6,0 -1.1,0.5 -1.1,1.1c0,0.6 0.5,1.1 1.1,1.1l1.6,0l0,1.6c0,0.6 0.5,1.1 1.1,1.1c0.6,0 1.1,-0.5 1.1,-1.1l0,-1.6l1.6,0c0.6,0 1.1,-0.5 1.1,-1.1c0,-0.6 -0.5,-1.1 -1.1,-1.1Z" style="fill:#65b1fc;fill-rule:nonzero;"/><path d="M146.2,187.6c5.6,3.2 5.6,8.4 0.1,11.7l-49.4,28.7c-5.5,3.2 -14.5,3.2 -20.1,0l-49.8,-28.8c-5.6,-3.2 -5.6,-8.4 -0.1,-11.6l49.4,-28.7c5.5,-3.2 14.5,-3.2 20.1,0l49.8,28.7Z" style="fill:#faf2ed;fill-rule:nonzero;"/><path d="M150.3,193.7l0,0.8l-0.1,0.2l-0.1,0.2c0,0.1 0,0.1 -0.1,0.2c0,0.1 0,0.1 -0.1,0.2l-0.1,0.2c0,0.1 -0.1,0.1 -0.1,0.2l-0.1,0.2l-0.1,0.2c-0.1,0.1 -0.1,0.2 -0.2,0.2c0,0.1 -0.1,0.1 -0.1,0.2l-0.2,0.3l-0.1,0.1c-0.1,0.2 -0.2,0.3 -0.4,0.4l-0.1,0.1l-0.3,0.3l-0.2,0.2l0.1,0.1l-0.2,0.2l-0.2,0.2l-0.2,0.2c-0.1,0.1 -0.2,0.1 -0.2,0.2l-0.2,0.2l-0.3,0.2l-0.3,0.2l-49.5,28.7c-0.3,0.2 -0.6,0.3 -1,0.5l-0.3,0.1c-0.3,0.1 -0.6,0.3 -0.9,0.4l-0.1,0c-0.3,0.1 -0.7,0.2 -1,0.4c-0.3,0.2 -0.5,0.1 -0.7,0.2l-0.6,0.2l-0.8,0.2l-0.6,0.1l-0.2,0l-1,0.1l-0.3,0c-0.4,0 -0.8,0.1 -1.1,0.1l-0.3,0l-0.8,0l-0.8,0l-0.6,0l-0.7,0c-0.2,0 -0.4,0 -0.7,-0.1c-0.2,-0.1 -0.5,0 -0.7,-0.1l-0.6,-0.1c-0.3,0 -0.5,-0.1 -0.8,-0.1c-0.3,-0.1 -0.5,-0.1 -0.8,-0.2l-0.2,0c-0.4,-0.1 -0.7,-0.2 -1.1,-0.3l-0.3,-0.1l-0.9,-0.3l-0.2,-0.1c-0.3,-0.1 -0.5,-0.2 -0.8,-0.3l-0.4,-0.2c-0.4,-0.2 -0.7,-0.4 -1,-0.5l-49.6,-28.8c-2.8,-1.6 -4.2,-3.7 -4.2,-5.9l0,37.7c0,2.1 1.4,4.2 4.2,5.9l49.7,28.7c0.3,0.2 0.7,0.4 1,0.5l1,0.5l0.1,0l0.2,0.1c0.3,0.1 0.6,0.2 0.9,0.3l0.4,0.2l0.9,0.2l0.2,0l0.8,0.2c0.2,0.1 0.5,0.1 0.8,0.1l0.3,0.1l0.3,0c0.2,0 0.5,0.1 0.7,0.1l3.9,0c0.3,0 0.7,0 1,-0.1l0.5,0l1,-0.1l0.3,0l0.5,-0.1l0.8,-0.2l0.6,-0.2l0.7,-0.2l0.2,0c0.3,-0.1 0.6,-0.2 0.9,-0.3l0.1,0l0.9,-0.4l0.3,-0.1c0.3,-0.2 0.6,-0.3 1,-0.5l49.4,-28.7l0.2,-0.1l0.2,-0.1c0.1,-0.1 0.2,-0.1 0.3,-0.2l0.2,-0.2l0.2,-0.2l0.2,-0.2l0.2,-0.2l0.2,-0.2l0.2,-0.2l0.1,-0.1l0.1,-0.1l0.3,-0.3l0.1,-0.1c0.1,-0.1 0.3,-0.3 0.4,-0.4c0,0 0,-0.1 0.1,-0.1l0.2,-0.3l0.1,-0.2l0.2,-0.2l0,-0.1c0,-0.1 0,-0.1 0.1,-0.1l0.1,-0.2l0.1,-0.2c0,-0.1 0.1,-0.1 0.1,-0.2l0,0.2l0,-0.1c0,-0.1 0,-0.1 0.1,-0.2c0,-0.1 0,-0.1 0.1,-0.2c0,-0.1 0,-0.1 0.1,-0.2l0,-0.1l0,-0.1l0,-0.2l0,-0.2l0,-0.2l0,-0.1l0,-0.1l0,-37.7c-0.4,0 -0.3,0 -0.3,0.1Z" style="fill:#f4d0cd;fill-rule:nonzero;"/><path d="M256.2,274.3c5.6,3.2 5.6,8.4 0.1,11.6l-49.4,28.7c-5.5,3.2 -14.5,3.2 -20.1,0l-49.8,-28.6c-5.6,-3.2 -5.6,-8.4 -0.1,-11.6l49.4,-28.7c5.5,-3.2 14.5,-3.2 20.1,0l49.8,28.6Z" style="fill:#faf2ed;fill-rule:nonzero;"/><path d="M260.4,280.5l0,1l-0.1,0.2c0,0.1 0,0.1 -0.1,0.2l-0.1,0.2l-0.1,0.2c0,0.1 -0.1,0.1 -0.1,0.2l-0.1,0.2l-0.1,0.2l-0.2,0.3c0,0.1 -0.1,0.1 -0.1,0.2c-0.1,0.1 -0.1,0.2 -0.2,0.3l-0.1,0.1c-0.1,0.1 -0.2,0.3 -0.4,0.4l-0.1,0.1l-0.3,0.3l-0.2,0.1l-0.2,0.2l-0.2,0.2l-0.2,0.2l-0.2,0.2l-0.2,0.2l-0.2,0.2l-0.3,0.2l-0.3,0.2l-49.5,28.7c-0.3,0.2 -0.6,0.3 -1,0.5l-0.3,0.1c-0.3,0.1 -0.6,0.3 -0.9,0.4l-0.1,0.1l-1,0.4l-0.7,0.2l-0.6,0.2l-0.8,0.2c-0.2,0 -0.4,0.1 -0.6,0.1l-0.2,0l-1,0.1l-0.3,0c-0.4,0 -0.8,0.1 -1.1,0.1l-0.2,0l-0.8,0l-0.8,0l-0.7,0l-0.7,0l-0.7,-0.1l-0.7,-0.1l-0.6,-0.1l-0.8,-0.1c-0.3,-0.1 -0.5,-0.1 -0.8,-0.2l-0.2,0l-1.1,-0.3l-0.3,-0.1c-0.3,-0.1 -0.6,-0.2 -0.9,-0.3l-0.2,-0.1c-0.3,-0.1 -0.5,-0.2 -0.8,-0.3l-0.4,-0.2c-0.4,-0.2 -0.7,-0.4 -1,-0.5l-49.5,-29c-2.8,-1.6 -4.2,-3.7 -4.2,-5.9l0,16.9c0,2.1 1.4,4.2 4.2,5.9l49.7,28.7c0.3,0.2 0.7,0.4 1,0.5l1,0.5l0.1,0l0.2,0.1l1.2,0.4l0.2,0.1c0.3,0.1 0.6,0.2 0.9,0.2l0.2,0l0.8,0.2c0.2,0.1 0.5,0.1 0.8,0.1l0.3,0.1l0.3,0c0.2,0 0.5,0.1 0.7,0.1l3.8,0c0.3,0 0.7,0 1,-0.1l0.5,0c0.3,0 0.7,-0.1 1,-0.1l0.3,0l0.5,-0.1l0.8,-0.2l0.6,-0.2c0.2,-0.1 0.5,-0.1 0.7,-0.2l0.2,0l0.9,-0.3l0.1,-0.1c0.3,-0.1 0.6,-0.2 0.9,-0.4l0.3,-0.1c0.3,-0.2 0.6,-0.3 1,-0.5l49.4,-28.7l0.2,-0.1l0.2,-0.1l0.3,-0.2l0.2,-0.2l0.2,-0.2l0.2,-0.2l0.2,-0.2l0.2,-0.2l0.2,-0.2l0.1,-0.1l0.1,-0.1c0.1,-0.1 0.2,-0.2 0.3,-0.3l0.1,-0.1c0.1,-0.1 0.3,-0.3 0.4,-0.4l0.1,-0.1l0.2,-0.3l0.1,-0.2c0.1,-0.1 0.1,-0.2 0.2,-0.2l0,-0.1c0,0 0,-0.1 0.1,-0.1c0,-0.1 0.1,-0.1 0.1,-0.2l0.1,-0.2l0.1,-0.2l0,-0.1l0,-0.1c0,-0.1 0.1,-0.1 0.1,-0.2l0.1,-0.2l0.1,-0.2l0,-0.1l0,-0.1l0,-0.2l0,-0.2l0,-0.2l0,-0.1l0,-0.1l0,-16.9c-0.3,0.3 -0.3,0.4 -0.2,0.5Z" style="fill:#f4d0cd;fill-rule:nonzero;"/><path d="M200,113.4l-13.8,-29.9l-2.2,2.1l-19.6,19.1c-2,2 -7.7,8.8 -11.1,13.1c-1.4,1.8 -2.2,3.9 -2.4,6.2c-0.2,3.9 0,7.9 0.5,11.8l1.5,17.1c0,0 2.7,1.8 7.3,0.7l2,-25.6c0.1,-1.7 0.8,-3.4 2,-4.6l0.7,-0.9c0.9,-1.2 1.9,-2.2 3,-3.3l6.1,-6.2c1.1,-1.1 2.9,-1.1 4,0.1c0.2,0.2 0.3,0.4 0.5,0.7c0.6,1.1 0.3,2.5 -0.6,3.3l-3.7,2.8c-2.2,1.9 -4.3,3.9 -6.3,6c-1.7,1.8 -2.4,4.2 -2.1,6.6c0.4,3 0.9,6.1 1.6,9l4,17.2c2.3,0.9 4.9,0.9 7.2,0l-1.3,-20.5c-0.2,-2.7 1,-5.4 3.2,-7l9.6,-4.1c5.5,-2.5 9.3,-7.7 9.9,-13.7Z" style="fill:#5b383b;fill-rule:nonzero;"/><path d="M159.8,62.1l-5,2.9c-2,1.1 -4.3,1.5 -6.5,1.1l-16.9,-3.3c-1.1,-0.7 -2.2,-1.4 -3.3,-2.2c-1.3,-0.8 -2.8,-1.5 -4.2,-2c-1.4,-0.5 -2.8,-1.5 -4.2,-1.8c-0.8,-0.1 -1.5,-0.1 -1.8,0.9c-0.2,1.1 0.7,1.2 1.4,1.8c1.8,1.5 1.9,3 2.4,5.1c0.4,1.6 1.4,2.9 2.8,3.7c1.8,1 2.7,0.6 4.4,0.4l20.3,4.9c3,0.7 6.2,0.2 8.8,-1.3l5.6,-3.3l-3.8,-6.9Z" style="fill:#f0b7cf;fill-rule:nonzero;"/><path d="M200.3,67.3c0,0 -7.2,-6.5 -13.6,-9.5c-6.4,-3 -12.4,-8.2 -20.4,-1.7c-8,6.5 -9.5,7.7 -9.5,7.7c0,0 2.3,5.4 5.9,5.9l8,-5.5l-0.3,18.2l-3.8,20.1c0,0 5.7,8.8 33.5,11l-0.1,-23.4l-0.2,-8.7l2.2,6.4c0,0 5.6,0.1 7.5,-4.5c-0.1,-0.1 -5.1,-12.6 -9.2,-16Z" style="fill:#ffe9b3;fill-rule:nonzero;"/><g><path d="M197.8,119l-21.6,12.5l-30.4,-17.5l21.7,-12.5l30.3,17.5Z" style="fill:#65b1fc;fill-rule:nonzero;"/><path d="M186.6,119.3l-13,7.6l-18.3,-10.5l13,-7.6l18.3,10.5Z" style="fill:#5b383b;fill-rule:nonzero;"/><path d="M197.8,119l0,2.2l-21.6,12.6l0,-2.3l21.6,-12.5Z" style="fill:#dfe5f3;fill-rule:nonzero;"/><path d="M176.2,131.5l0,2.3l-30.4,-17.5l0,-2.3l30.4,17.5Z" style="fill:#65b1fc;fill-rule:nonzero;"/></g><g><path d="M146.7,93.6l-0.8,-2.3l-0.1,25l0.9,-0.5l0,-22.2Z" style="fill:#65b1fc;fill-rule:nonzero;"/><path d="M146.7,115.8l-0.9,0.5l30.4,17.5l-1.6,-1.9l-27.9,-16.1Z" style="fill:#65b1fc;fill-rule:nonzero;"/><path d="M146.7,93.6l0,22.2l27.9,16.1l0,-22.2l-27.9,-16.1Z" style="fill:#dfe5f3;fill-rule:nonzero;"/><path d="M176.2,108.8l1.7,-1l-30.3,-17.5l-1.7,1l30.3,17.5Z" style="fill:#dfe5f3;fill-rule:nonzero;"/><path d="M174.6,131.9l1.6,1.9l0,-25l-1.6,0.9l0,22.2Z" style="fill:#65b1fc;fill-rule:nonzero;"/><path d="M174.6,109.7l1.6,-0.9l-30.3,-17.5l0.8,2.3l27.9,16.1Z" style="fill:#65b1fc;fill-rule:nonzero;"/><path d="M176.2,133.8l1.6,-1l0.1,-25l-1.7,1l0,25Z" style="fill:#dfe5f3;fill-rule:nonzero;"/></g><path d="M179.6,62.5l0.1,0.6c0.4,2.5 2.7,4.1 5.2,3.7c0.5,-0.1 1,-0.3 1.5,-0.5c2.5,-1.4 3.8,-4.1 3.4,-6.9l0.7,-7.4l-7.3,-1.9l-0.6,5.4c-2.3,1.6 -3.5,4.3 -3,7Z" style="fill:#d8a0ba;fill-rule:nonzero;"/><path d="M194.1,47.1c-0.3,-0.3 0.5,-8.3 -3.5,-8.8c-9.9,-1.2 -16,0.2 -16,1.2c0,2.2 -0.1,5.5 0.2,7.7c0.2,3.1 1,6.1 2.4,8.8c0.5,0.9 1,1.7 1.7,2.4c0.5,0.5 1.1,1 1.8,1.4c0.6,0.3 1.3,0.4 1.9,0.4c1.1,0 2.2,-0.2 3.1,-0.7c0.2,-0.1 0.5,-0.2 0.7,-0.4c2,-1.3 3.5,-3.2 4.4,-5.4c0.3,-0.6 0.6,-1.3 0.8,-1.9c0.1,0.2 0.4,0.4 0.7,0.4l0.1,0c0.5,0 1,-0.5 1.5,-1.6c0.4,-0.7 0.6,-1.5 0.8,-2.3l0,-0.2c-0.1,-0.3 -0.3,-0.7 -0.6,-1Z" style="fill:#f0b7cf;fill-rule:nonzero;"/><path d="M188.5,63.3l1.1,-12.6c0,-0.2 0,-0.4 -0.1,-0.6c-0.1,-0.6 -10.4,-5.3 -14,-7.9c-1,-0.7 -1.6,-2 -1.5,-3.3l0,-0.4c0.5,-3.4 3.5,-6.1 6.3,-7.2c3.7,-1.3 7.7,-1.1 11.2,0.6c2,0.9 3.6,2.7 4.2,4.8c1,3.5 -0.1,7.2 -1,10.4l-0.9,0.5c-0.1,-0.1 -0.3,-0.2 -0.5,-0.2c-0.3,0.1 -0.8,0.5 -1.1,1.2c-0.1,0.2 -0.1,0.4 -0.2,0.6c-0.1,0.4 -1.4,8.4 -1.5,8.4l-0.6,6.6c-0.5,0.2 -1.1,-0.1 -1.3,-0.6c-0.1,0 -0.1,-0.1 -0.1,-0.3Z" style="fill:#5b383b;fill-rule:nonzero;"/><path d="M188.8,115.4c-0.2,-0.3 -0.3,-0.6 -0.3,-0.9c0,-0.2 0.1,-0.4 0.2,-0.6c0.6,-1.3 1.6,-1.5 2.5,-2.3c0.5,-0.4 0.8,-0.9 1.3,-1.3c0.3,-0.2 0.5,-0.5 0.6,-0.8c0.5,-1.3 -2.5,-1.5 -2.8,-2.6c-0.1,-0.4 0.1,-0.6 0.6,-0.7c1,-0.1 2,-0.2 3.1,-0.1c0.6,-0.1 1.2,-0.2 1.9,-0.3c0.9,-0.1 1.6,0.9 2.5,0.1c0.4,-0.4 0.7,-0.9 1.1,-1.4c0.5,-0.6 1.1,-1.2 1.7,-1.8c1.1,-1.1 2.2,-2.3 3.4,-3.4c0.7,-0.6 1.2,-1.4 1.3,-2.3c0,-0.4 -0.1,-0.7 -0.2,-1.1c-0.5,-1.8 -3.8,-9.8 -3.9,-11.7l6.7,-2.3c1.1,2.8 4.9,11.7 5.5,14.7c0.5,1.4 0,2.9 -1.1,3.8c-1.5,1.6 -3,3.2 -4.7,4.6c-1.7,1.4 -3.5,2.7 -5.4,3.8c-1.5,0.9 -2.9,2.1 -4,3.5c-0.8,1 -1.4,2.4 -2.6,3c-1.1,0.6 -2.4,1.1 -3.7,1.3c-1.2,0.2 -3,-0.2 -3.7,-1.2Z" style="fill:#f0b7cf;fill-rule:nonzero;"/><path d="M199.8,81.4l2.2,6.4c0,0 5.6,0.1 7.5,-4.5c0,0 -1.6,-4.1 -3.8,-8.2l-5.9,6.3Z" style="fill:#ffe9b3;fill-rule:nonzero;"/><path d="M133.3,88.7c-0.1,-0.8 -0.6,-1.4 -1.3,-1.7c-0.6,-0.1 -1.3,0.4 -1.8,0.6c-0.6,0.4 -1.2,0.7 -1.9,0.9c-0.7,0.2 -1.4,0 -1.9,-0.4c-0.3,-0.4 -0.4,-0.9 -0.4,-1.4c0,-0.8 0,-2 -1,-2.1c-1,-0.1 -1.3,0.9 -1.6,1.7c-0.5,1 -1.1,3.1 -2.3,3.6c-3.7,-0.4 -7.5,-0.5 -11.2,-0.5c-1.2,0.1 -1.9,-0.8 -2.7,-1.7c-0.6,-0.7 -1,-1.5 -1.4,-2.3c-1.1,-1.9 -1.8,-4.1 -2.7,-6.1c-1.1,-2.5 -7.7,-4.9 -11.1,-3.3c-2.8,1.3 2.5,3.1 3.1,5.1c1.1,3.3 3.2,9.4 5.6,12c1,1.1 2.1,2.1 3.4,2.9c1.2,0.8 2.7,0.8 4.2,0.8c0.9,0 1.8,0.2 2.8,0.2c3.2,-0.1 6.5,-0.5 9.7,-1c0.6,-0.2 1.2,-0.3 1.8,-0.3c1.1,0.2 2.3,0.2 3.4,-0.2c1.5,-0.1 2.9,-0.6 4.2,-1.4c1.7,-1 3.2,-3.2 3.1,-5.4Z" style="fill:#f0b7cf;fill-rule:nonzero;"/><path d="M85,181c2.4,0.8 4.6,1.9 6.7,3.3c2.1,1.5 4.7,1.5 6.1,3.3c1.3,1.6 0.1,3.6 -2,3.6l-2.2,0c-1.4,0 -2.7,-0.5 -3.7,-1.4c-0.8,-0.7 -1.8,-1.3 -2.8,-1.6c-0.7,-0.2 -4.4,-0.2 -6.9,-0.2c-1.5,0 -2.8,-1.2 -2.8,-2.8l0,-0.4c0.4,-2.1 2,-4.4 7.6,-3.8Z" style="fill:#5b383b;fill-rule:nonzero;"/><path d="M70,187.3c0,0 -4.3,-0.1 -3.3,4.8c1.1,4.8 2,1.9 3.3,7.5c1.3,5.6 8.2,6 8,2.7c-0.3,-3.4 -2.4,-6.4 -3,-9.3c-0.7,-2.9 -0.1,-5.4 -1.7,-5.7c-1.1,-0.2 -2.2,-0.2 -3.3,0Z" style="fill:#5b383b;fill-rule:nonzero;"/><path d="M85,179.9c2.4,0.8 4.6,1.9 6.7,3.3c2.1,1.5 4.7,1.5 6.1,3.3c0.8,1.1 0.6,2.7 -0.5,3.5c-0.4,0.3 -1,0.5 -1.5,0.5l-2.2,0c-1.4,0 -2.7,-0.5 -3.7,-1.4c-0.8,-0.8 -1.8,-1.5 -2.8,-2c-0.7,-0.2 -4.4,-0.2 -6.9,-0.2c-1.5,0 -2.8,-1.2 -2.8,-2.8l0,-0.4c0.4,-2.2 2,-4.5 7.6,-3.8Z" style="fill:#5b383b;fill-rule:nonzero;"/><path d="M70.4,186.4c0,0 -4.3,-0.1 -3.3,4.7c1.1,4.8 2,1.9 3.3,7.5c1.3,5.6 8.2,6 8,2.7c-0.3,-3.4 -2.4,-6.4 -3,-9.2c-0.6,-2.8 -0.1,-5.4 -1.7,-5.7c-1.1,-0.2 -2.2,-0.2 -3.3,0Z" style="fill:#5b383b;fill-rule:nonzero;"/><path d="M68,187.8c1.8,0.7 3.9,0.7 5.7,0l0,-4.7l-5.7,0l0,4.7Z" style="fill:#f0b7cf;fill-rule:nonzero;"/><path d="M80.2,181.5c1.8,0.6 3.9,0.6 5.7,0l0,-4.7l-5.7,0l0,4.7Z" style="fill:#f0b7cf;fill-rule:nonzero;"/><path d="M97.9,110.7l0,27.4c0,8.7 -1.8,17.3 -5.2,25.2l-6.2,14.2l-0.9,0.4c-2,0.9 -4.3,0.9 -6.3,0.1l5,-25.2c0.5,-2.4 0.7,-4.8 0.7,-7.2l0.2,-8.6c0,-1.6 -1.3,-2.8 -2.8,-2.8c-0.3,0 -0.5,0 -0.8,0.1c-1.2,0.4 -2,1.5 -1.9,2.7l0.6,4.6c0.6,8.5 -0.1,17.1 -2,25.4l-4,17.2c-2.3,0.9 -4.9,0.9 -7.2,0l1.6,-24c0.2,-3.6 0.1,-7.3 -0.3,-10.9l-3.1,-26.3l32.6,-15.3l0,3Z" style="fill:#5b383b;fill-rule:nonzero;"/><path d="M66.3,80.3c0,0 7.2,-6.5 13.6,-9.5c6.4,-3 12.9,-2.1 20.3,5.1c2.3,2.2 4.3,4.7 5.9,7.4c0,0 -4.2,7.3 -7.7,7.9l-3.1,-8.4l1,12.7l3.9,20.1c0,0 -4.3,11.7 -36.6,9.5l3.2,-21.9l0.9,-6.7l-2.6,6.2c0,0 -4.9,-2.4 -6.7,-7c-0.1,-0.1 3.8,-12 7.9,-15.4Z" style="fill:#65b1fc;fill-rule:nonzero;"/><path d="M87,75.4l-0.1,0.6c-0.4,2.5 -2.7,4.1 -5.2,3.7c-0.5,-0.1 -1,-0.3 -1.5,-0.5c-2.5,-1.4 -3.8,-4.1 -3.4,-6.9l-0.7,-7.3l7.3,-1.9l0.6,5.4c2.3,1.5 3.5,4.2 3,6.9Z" style="fill:#d8a0ba;fill-rule:nonzero;"/><path d="M72.5,60.1c0.3,-0.3 -0.5,-8.3 3.5,-8.8c9.9,-1.2 16,0.2 16,1.2c0,2.2 0.1,5.5 -0.2,7.7c-0.2,3.1 -1,6.1 -2.4,8.8c-0.5,0.9 -1,1.7 -1.7,2.4c-0.5,0.5 -1.1,1 -1.8,1.4c-0.6,0.3 -1.3,0.4 -1.9,0.4c-1,0 -2,-0.2 -3,-0.6c-0.2,-0.1 -0.5,-0.2 -0.7,-0.4c-2,-1.3 -3.5,-3.2 -4.4,-5.4c-0.3,-0.6 -0.6,-1.3 -0.9,-1.9c-0.1,0.2 -0.4,0.4 -0.7,0.4c-0.5,0 -1,-0.5 -1.5,-1.6c-0.4,-0.7 -0.6,-1.5 -0.7,-2.3l0,-0.2c-0.1,-0.4 0.1,-0.8 0.4,-1.1Z" style="fill:#f0b7cf;fill-rule:nonzero;"/><path d="M92.2,51.9l0,-0.4c-0.4,-3.1 -3.2,-5.7 -5.9,-6.7c-4.8,-1.8 -13.1,-0.6 -14.8,5c-1,3.4 0.2,7.1 1.1,10.4c1,-0.9 1.9,0.3 2.4,1.2c0.2,0.4 0.2,1.2 0.4,1.5c0.2,0.3 0.9,0.5 1.2,0.7c0.1,-0.7 0.2,-1.5 0.1,-2.3c-0.2,-1 -0.5,-2.1 -0.8,-3.1c-0.2,-1 -0.7,-1.8 -0.6,-2.7c0.3,-1.9 1.9,-2.3 3.5,-1.7c3.9,1.4 8.2,3.6 12,0.9c1,-0.6 1.5,-1.7 1.4,-2.8Z" style="fill:#5b383b;fill-rule:nonzero;"/><path d="M76.3,64.1c-0.1,-0.1 -0.3,-0.1 -0.4,-0.2c-0.4,-0.1 -0.7,-0.4 -1,-0.7c-0.2,-0.3 -0.3,-0.6 -0.3,-1c0,-0.2 -0.1,-0.4 -0.1,-0.6c-0.3,-0.7 -0.8,-1.2 -1.1,-1.2c-0.2,0 -0.4,0 -0.5,0.2l-0.6,0.5l-0.3,-1c-1,-3.3 -2,-7 -1,-10.4c0.7,-2.1 2.2,-3.9 4.2,-4.8c3.5,-1.6 7.5,-1.8 11.2,-0.6c2.7,1 5.8,3.7 6.2,7.2l0,0.4c0.1,1.3 -0.5,2.5 -1.6,3.3c-3.6,2.6 -7.6,1.1 -11.2,-0.3l-1.3,-0.5c-0.7,-0.3 -1.4,-0.3 -2.1,0c-0.4,0.3 -0.7,0.8 -0.7,1.3c0,0.6 0.1,1.1 0.3,1.7c0.1,0.3 0.2,0.6 0.3,0.9c0.1,0.3 0.2,0.8 0.3,1.1c0.2,0.6 0.3,1.3 0.5,2c0.1,0.6 0.1,1.2 0,1.8c0,0.2 -0.1,0.4 -0.1,0.6l0,0.7l-0.7,-0.4Zm2.6,-10.7l1.3,0.5c3.5,1.3 7.1,2.7 10.3,0.4c0.8,-0.5 1.3,-1.4 1.2,-2.4l0,-0.3c-0.4,-2.9 -3.1,-5.4 -5.6,-6.3c-3.4,-1.2 -7.1,-1 -10.4,0.5c-1.8,0.8 -3.1,2.3 -3.7,4.2c-0.9,3.1 0.1,6.5 0.9,9.5c0.2,-0.1 0.5,-0.1 0.7,0c0.9,0.2 1.5,1.2 1.8,1.8c0.1,0.3 0.2,0.6 0.2,0.9c0,0.2 0.1,0.4 0.1,0.6c0.1,0.1 0.2,0.2 0.4,0.2c0.1,-0.5 0.1,-1 0.1,-1.4c-0.1,-0.6 -0.3,-1.2 -0.5,-1.8c-0.1,-0.4 -0.2,-0.8 -0.3,-1.2c-0.1,-0.3 -0.1,-0.5 -0.2,-0.8c-0.3,-0.7 -0.4,-1.4 -0.4,-2.1c0.1,-0.8 0.5,-1.6 1.2,-2c0.4,-0.3 1,-0.4 1.5,-0.4c0.5,-0.2 1,-0.1 1.4,0.1Z" style="fill:#5b383b;fill-rule:nonzero;"/><path d="M80.2,127.3c0.5,-0.6 0.6,-1.4 0.4,-2.1c-0.3,-0.5 -1.2,-0.7 -1.7,-0.8c-0.7,-0.1 -1.3,-0.4 -1.9,-0.7c-0.6,-0.4 -1,-1 -1,-1.7c0.1,-0.5 0.3,-0.9 0.7,-1.2c0.6,-0.6 1.4,-1.4 0.8,-2.2c-0.6,-0.8 -1.6,-0.3 -2.4,0c-1,0.4 -3,1.4 -4.2,0.9c-2.3,-2.9 -4.7,-5.8 -7.3,-8.5c-0.9,-0.9 -0.7,-1.9 -0.6,-3.1c0.1,-0.9 0.3,-1.7 0.7,-2.6c0.7,-2.1 1.7,-4.1 2.5,-6.2c1,-2.5 2.5,-6.9 -1,-8.2c-2.9,-1.1 -4.8,1.8 -5.8,3.7c-1.6,3.1 -4.6,8.8 -4.8,12.4c-0.1,1.5 0,3 0.3,4.4c0.3,1.5 1.3,2.5 2.4,3.6c0.6,0.7 1.2,1.4 1.8,2.2c0.8,1 7.3,6.4 7.4,6.3c0.5,0.4 1.1,0.6 1.4,1.1c0.6,1 1.5,1.8 2.5,2.4c1.1,1 2.5,1.7 3.9,2c1.9,0.4 4.5,0 5.9,-1.7Z" style="fill:#f0b7cf;fill-rule:nonzero;"/><path d="M65.2,81.4c-3.7,4.3 -7,14.2 -7,14.2c1.8,4.6 6.7,7 6.7,7l2.6,-6.2l4,-8.9l-6.3,-6.1Z" style="fill:#65b1fc;fill-rule:nonzero;"/><path d="M159.8,108.1c-2.2,-1.3 -4,-0.3 -4.1,2.3c0.1,2.8 1.6,5.4 4,7c2.2,1.3 4,0.3 4.1,-2.3c-0.1,-2.8 -1.6,-5.4 -4,-7Z" style="fill:#65b1fc;fill-rule:nonzero;"/><path d="M186.4,249.3l0.1,10.6c0,0.6 0,1.1 -0.1,1.7l-4.6,19.4l9.4,-0.9c-0.3,1.7 -1.2,3.2 -2.6,4.3c0,0 -14.1,5.1 -13.8,3.2l0.6,-4.3l0,-11.7c0,-2.9 0.5,-5.9 1.4,-8.7l0.8,-2.5c0.3,-0.9 0.5,-1.9 0.5,-2.8l0.2,-11.5l8.1,3.2Z" style="fill:#f0b7cf;fill-rule:nonzero;"/><path d="M182,280.5c0,0 7.4,-2.4 9,-2.3c1.6,0.1 3.3,2.3 3.3,4c0,1.7 -2.7,3 -5.3,4.3c-1.8,0.9 -6.2,2.8 -9.1,3.9c-1.7,0.7 -3.7,0.4 -5.1,-0.8c-1,-0.8 -1.9,-1.8 -1.9,-2.4c0,-0.9 1,-3.4 1.1,-4.6c0.1,-0.7 1.1,-1.2 1.8,-1.2c1.9,-0.1 4.3,0.3 6.2,-0.9Z" style="fill:#5b383b;fill-rule:nonzero;"/><path d="M228.2,178.1c-0.7,-1 -1.7,-1.6 -2.9,-1.7c-1.7,0 -3.5,0 -5.2,0.2c-0.9,0.1 -1.8,0.5 -2.6,1c-0.6,0.3 -1.4,0.7 -1.2,1.3c0.2,0.6 1.5,1.7 1.3,2.3c-0.2,0.6 -0.9,0.6 -1.6,0.8c-4.1,1.1 -20.8,-3.1 -22.2,-3.5c-1.7,-0.5 1.2,2.8 0.4,1.9c-0.3,-0.4 -0.7,-0.8 -0.3,-1.1l-6.2,-0.3l-3.1,-0.1l-1.6,-0.1c-0.5,-0.1 -1,-0.1 -1.5,-0.1c0.1,0.3 0.3,0.6 0.4,1c0.1,0.3 0.1,0.7 0,1c-0.1,0.6 -0.3,1.3 -0.5,1.9c-0.6,1.4 -0.1,3.1 1.2,3.9c1.5,1.1 4.1,1.8 6.5,2.2c4.4,0.6 8.8,0.6 13.2,0.3c6.1,-0.4 12.1,-0.9 17.1,-2.4c4.9,-1.4 9.5,-4.6 9.9,-7.8c0,-0.3 -0.8,-0.2 -1.1,-0.7Z" style="fill:#d8a0ba;fill-rule:nonzero;"/><g><path d="M243.1,162.3l0,2l-0.7,0.4l-0.1,-2l0.8,-0.4Z" style="fill:#5b383b;fill-rule:nonzero;"/><path d="M242.4,164.7l-3,-1.7l0,-2l2.9,1.7l0.1,2Z" style="fill:#5b383b;fill-rule:nonzero;"/><path d="M242.3,162.7l-2.9,-1.7l0.8,-0.4l2.9,1.7l-0.8,0.4Z" style="fill:#5b383b;fill-rule:nonzero;"/></g><g><path d="M241.7,162.6l0,1.4l-5,2.9l0,-1.5l5,-2.8Z" style="fill:#dfe5f3;fill-rule:nonzero;"/><path d="M236.7,166.9l-1.5,-0.9l0,-1.4l1.5,0.8l0,1.5Z" style="fill:#dfe5f3;fill-rule:nonzero;"/><path d="M236.7,165.4l-1.5,-0.8l5,-2.9l1.5,0.9l-5,2.8Z" style="fill:#dfe5f3;fill-rule:nonzero;"/></g><path d="M236.3,165.1c0.2,-0.1 0.4,0 0.4,0.2l0,1.8c0,0.3 -0.2,0.5 -0.4,0.7l-3.7,2.1l0,-2.7l3.7,-2.1Z" style="fill:#dfe5f3;fill-rule:nonzero;"/><path d="M232.6,170l-2.9,-1.8l-0.1,-2.6l3,1.7l0,2.7Z" style="fill:#dfe5f3;fill-rule:nonzero;"/><path d="M236.6,165.1l-3,-1.7l-0.2,0l-0.1,0l-0.1,0l-3.7,2.1l2.9,1.7l3.7,-2.1l0.2,-0.1c0.2,0 0.3,0.1 0.3,0.1Z" style="fill:#dfe5f3;fill-rule:nonzero;"/><path d="M232.1,166.7c0.4,-0.2 0.8,-0.1 0.8,0.4l0,2.7c0,0.7 -0.3,1.3 -0.7,1.8l-2.4,3.4c-0.2,0.3 -0.5,0.5 -0.8,0.7l-3.5,2l0,-7.1l6.6,-3.9Z" style="fill:#5b383b;fill-rule:nonzero;"/><path d="M225.5,177.6l-3,-1.8l0,-7l3,1.7l0,7.1Z" style="fill:#5b383b;fill-rule:nonzero;"/><path d="M232.4,166.6l0.2,0l-2.9,-1.7l-0.3,0l-0.1,0l-0.1,0.1l-6.7,3.9l2.9,1.7l6.6,-3.8l0.1,-0.1l0.3,-0.1Z" style="fill:#5b383b;fill-rule:nonzero;"/><path d="M224.4,178l0,1.3c0,1.7 0.7,2.9 1.9,3.3l-2.2,4.4c-2,-0.7 -3.2,-2.8 -3.2,-5.7l0,-1.3l3.5,-2Z" style="fill:#5b383b;fill-rule:nonzero;"/><path d="M220.9,181.3l0,-1.3l-3,-1.7l0,1.4c0,2.6 0.9,4.5 2.4,5.4l3,1.7c-1.5,-0.9 -2.4,-2.9 -2.4,-5.5Z" style="fill:#5b383b;fill-rule:nonzero;"/><path d="M220.9,180l-2.9,-1.7l3.5,-2l3,1.7l-3.6,2Z" style="fill:#5b383b;fill-rule:nonzero;"/><path d="M217.1,182.7l-1.4,-0.8l1.4,-0.9l1.5,0.9l-1.5,0.8Z" style="fill:#dfe5f3;fill-rule:nonzero;"/><path d="M217.1,182.7l1.4,-0.8c-0.6,1.7 -1.7,3.2 -3.3,4.2l-1.9,1.1l0.7,-1.8l1.2,-0.7c0.9,-0.5 1.5,-1.2 1.9,-2Z" style="fill:#dfe5f3;fill-rule:nonzero;"/><path d="M213.4,187.2l-1.5,-0.9l0.7,-1.7l1.5,0.8l-0.7,1.8Z" style="fill:#dfe5f3;fill-rule:nonzero;"/><path d="M217,182.9c0,-0.1 0.1,-0.1 0.1,-0.2l-1.5,-0.9l-0.2,0.3l0,0.1l-0.2,0.3l-0.2,0.2l-0.1,0.1c0,0.1 -0.1,0.1 -0.1,0.2l-0.2,0.2l-0.1,0.1c-0.1,0.1 -0.2,0.2 -0.4,0.3l-0.1,0.1c-0.1,0.1 -0.2,0.2 -0.4,0.3l-1.2,0.7l1.5,0.9l1.2,-0.7c0.1,-0.1 0.3,-0.2 0.4,-0.3l0.1,-0.1l0.4,-0.3l0.1,-0.1l0.2,-0.2l0.1,-0.1l0.1,-0.1l0.2,-0.2l0.1,-0.2l0,-0.1l0,-0.1l0.2,-0.2Z" style="fill:#dfe5f3;fill-rule:nonzero;"/><path d="M215.7,182.3l-2.1,5.4c-0.5,1.3 -1.4,2.4 -2.6,3.2c-0.8,0.5 -1.3,-0.2 -0.9,-1.3l2.1,-5.4l3.5,-1.9Z" style="fill:#5b383b;fill-rule:nonzero;"/><path d="M210.2,190.9c0,0 -0.1,-0.1 -0.1,-0.2l0,-0.2l0,-0.1l0,-0.2l0,-0.2c0,-0.1 0,-0.2 0.1,-0.2l2.1,-5.4l-2.9,-1.8l-2.1,5.4l0,1c0,0.1 0,0.1 0.1,0.2l0.1,0.1l3,1.7l-0.1,-0.1l-0.2,0Z" style="fill:#5b383b;fill-rule:nonzero;"/><path d="M212.2,184.4l-2.9,-1.8l3.5,-2l2.9,1.7l-3.5,2.1Z" style="fill:#5b383b;fill-rule:nonzero;"/><path d="M225.1,169.5c0.3,-0.2 0.6,0 0.6,0.3l0,7.5c0,0.4 -0.2,0.8 -0.6,1l-11.8,6.8c-0.3,0.2 -0.6,0 -0.6,-0.3l0,-7.5c0,-0.4 0.2,-0.8 0.6,-1l11.8,-6.8Z" style="fill:#ffe9b3;fill-rule:nonzero;"/><path d="M225.3,169.5l0.3,0l-4.4,-2.6l-0.2,0l-0.1,0l-0.1,0l-0.1,0l-11.8,6.8c-0.1,0 -0.1,0.1 -0.2,0.1l0,8.2c0,0.1 0.1,0.3 0.2,0.4l4.4,2.6c-0.1,-0.1 -0.2,-0.2 -0.2,-0.4l0,-7.6l0,-0.1l0,-0.1l0.1,-0.1l0.1,-0.1l0.1,-0.1l0.1,-0.1c0.1,-0.1 0.1,-0.1 0.2,-0.1l11.8,-6.8l0.1,-0.1l-0.3,0.1Z" style="fill:#ffe9b3;fill-rule:nonzero;"/><g><path d="M239.6,162.3l-1.5,-0.9l1.7,0.5l1.5,0.9l-1.7,-0.5Z" style="fill:#ffe9b3;fill-rule:nonzero;"/><path d="M239.6,162.3l1.7,0.5l-1,0.6l-0.9,-0.3l-1.4,0.8l0,0.8l-0.6,0.3l0,-1.5l2.2,-1.2Z" style="fill:#ffe9b3;fill-rule:nonzero;"/><path d="M237.4,165l-1.5,-0.8l0,-1.5l1.5,0.8l0,1.5Z" style="fill:#ffe9b3;fill-rule:nonzero;"/><path d="M237.4,163.5l-1.5,-0.8l2.2,-1.3l1.5,0.9l-2.2,1.2Z" style="fill:#ffe9b3;fill-rule:nonzero;"/></g><g><path d="M217.8,168.4l-1,-0.5l3.8,1.1l1,0.5l-3.8,-1.1Z" style="fill:#5b383b;fill-rule:nonzero;"/><path d="M217.8,168.4l3.8,1.1l-2.3,1.3l-2,-0.6l-3.1,1.8l0,1.7l-1.3,0.8l0,-3.3l4.9,-2.8Z" style="fill:#5b383b;fill-rule:nonzero;"/><path d="M212.9,174.5l-1,-0.5l0,-3.3l1,0.5l0,3.3Z" style="fill:#5b383b;fill-rule:nonzero;"/><path d="M212.9,171.2l-1,-0.5l4.9,-2.8l1,0.5l-4.9,2.8Z" style="fill:#5b383b;fill-rule:nonzero;"/></g><g><path d="M211,180.6l0,2.1l-9.3,6.9l0,-2.1l9.3,-6.9Z" style="fill:#dfe5f3;fill-rule:nonzero;"/><path d="M201.7,189.6l-1.4,-0.9l-0.1,-2.1l1.5,0.9l0,2.1Z" style="fill:#dfe5f3;fill-rule:nonzero;"/><path d="M201.7,187.5l-1.5,-0.9l9.3,-6.9l1.5,0.9l-9.3,6.9Z" style="fill:#dfe5f3;fill-rule:nonzero;"/></g><g><path d="M211,177.3l0,2.1l-9.3,5.5l0,-2.1l9.3,-5.5Z" style="fill:#dfe5f3;fill-rule:nonzero;"/><path d="M201.7,184.9l-1.5,-0.9l0,-2l1.5,0.8l0,2.1Z" style="fill:#dfe5f3;fill-rule:nonzero;"/><path d="M201.7,182.8l-1.5,-0.8l9.3,-5.5l1.5,0.8l-9.3,5.5Z" style="fill:#dfe5f3;fill-rule:nonzero;"/></g><path d="M201.4,181.3c0.6,-0.3 1.1,-0.1 1.1,0.6l0,7.7c0,0.8 -0.4,1.5 -1.1,1.9c-0.6,0.4 -1.1,0.1 -1.1,-0.6l0,-7.7c0.1,-0.8 0.5,-1.4 1.1,-1.9Z" style="fill:#5b383b;fill-rule:nonzero;"/><path d="M200.3,182.9c0,-0.1 0,-0.2 0.1,-0.2c0,-0.1 0.1,-0.2 0.1,-0.3c0,-0.1 0.1,-0.2 0.1,-0.3c0,-0.1 0.1,-0.2 0.2,-0.2l0.2,-0.2l0.1,-0.1l0.1,-0.1c0.1,-0.1 0.1,-0.1 0.2,-0.1l0.2,-0.1l0.4,0c0.1,0 0.1,0 0.2,0.1l-3,-1.7l-0.2,0l-0.3,0l-0.1,0l-0.2,0.1c-0.1,0 -0.1,0.1 -0.2,0.1l-0.1,0.1l-0.1,0l-0.1,0.1c0,0 0,0.1 -0.1,0.1l-0.1,0.1l0,0.1l-0.1,0.1l0,8.6c0,0.1 0,0.3 0.1,0.4c0,0.1 0.1,0.2 0.2,0.3l3,1.7c-0.2,-0.2 -0.3,-0.4 -0.3,-0.7l0,-7.7l0,-0.2l-0.3,0Z" style="fill:#5b383b;fill-rule:nonzero;"/><path d="M223.4,172.4l-0.3,-0.2l-0.1,0l-0.1,0l-7.6,4.4l-0.1,0.1l0,0.2c0,0.1 0,0.2 0.1,0.2l0.3,0.2c-0.1,-0.1 -0.1,-0.1 -0.1,-0.2l0,-0.2l0.1,-0.2c0,-0.1 0.1,-0.1 0.1,-0.2l0.1,-0.1l7.6,-4.4l0.2,0l-0.2,0.4Z" style="fill:#5b383b;fill-rule:nonzero;"/><path d="M223.2,174.6l-0.2,0l-7.6,4.4l-0.1,0.1l0,0.7c0,0.1 0,0.2 0.1,0.2l0.3,0.2c-0.1,-0.1 -0.1,-0.1 -0.1,-0.2l0,-0.2l0.1,-0.2c0,-0.1 0.1,-0.1 0.1,-0.2l0.1,-0.1l7.6,-4.4c0,0 0.1,0 0.1,-0.1l0.1,0l-0.5,-0.2Z" style="fill:#5b383b;fill-rule:nonzero;"/><path d="M223.2,177l-0.2,0l-7.6,4.4l-0.1,0.1l0,0.3c0,0.1 0,0.2 0.1,0.2l0.3,0.2c-0.1,-0.1 -0.1,-0.2 -0.1,-0.2l0,-0.2l0.1,-0.2c0,-0.1 0.1,-0.1 0.1,-0.2l0.1,-0.1l7.6,-4.4c0,0 0.1,0 0.1,-0.1l0.1,0l-0.5,0.2Z" style="fill:#5b383b;fill-rule:nonzero;"/><path d="M223.2,172.4c0.2,-0.1 0.4,0 0.4,0.2c0,0.3 -0.2,0.5 -0.4,0.6l-7.6,4.4c-0.2,0.1 -0.4,0 -0.4,-0.2c0,-0.3 0.2,-0.5 0.4,-0.6l7.6,-4.4Z" style="fill:#5b383b;fill-rule:nonzero;"/><path d="M223.2,174.8c0.2,-0.1 0.4,0 0.4,0.2c0,0.3 -0.2,0.5 -0.4,0.6l-7.6,4.4c-0.2,0.1 -0.4,0 -0.4,-0.2c0,-0.3 0.2,-0.5 0.4,-0.6l7.6,-4.4Z" style="fill:#5b383b;fill-rule:nonzero;"/><path d="M223.2,177.2c0.2,-0.1 0.4,0 0.4,0.2c0,0.3 -0.1,0.5 -0.4,0.6l-7.6,4.4c-0.2,0.1 -0.4,0 -0.4,-0.2c0,-0.3 0.2,-0.5 0.4,-0.6l7.6,-4.4Z" style="fill:#5b383b;fill-rule:nonzero;"/><path d="M193.5,169.7l-10,0.7l0.7,3.9c0,0.4 0.2,0.9 0.5,1.2c0.4,0.3 0.8,0.5 1.3,0.6c2.4,0.7 4.9,1.3 7.4,1.8c0.1,-0.7 0.2,-1.5 0.1,-2.2l0,-6Z" style="fill:#d8a0ba;fill-rule:nonzero;"/><path d="M200.9,253.5l0,9.5c0,0.9 -0.1,1.7 -0.2,2.6l-4,26.1l6.6,-1.3c1.4,0 2.7,0.3 3.9,0.9c1.1,0.6 1.6,1.9 1,3.1c-0.3,0.5 -0.7,0.9 -1.2,1.1l-12.7,5c-1.6,0.7 -3.5,0.3 -4.8,-0.9c-1.2,-1.2 -1.7,-2.9 -1.3,-4.6l1.2,-4.2c0.1,-0.3 0.1,-0.7 0.2,-1.1l0.1,-11.2c0,-3.4 0.5,-6.7 1.3,-9.9l1.6,-6l-0.4,-11.7l8.7,2.6Z" style="fill:#f0b7cf;fill-rule:nonzero;"/><path d="M202.5,228.7l-2.1,-21.5c-0.2,-2 -0.1,-4 0.2,-6l2.2,-12.3c0.4,-2.4 -0.5,-4.9 -2.4,-6.4l-7.3,-4.6c-3.5,-2.2 -7.2,-3.9 -11.2,-5.1l-0.6,-0.2c-2.1,-0.5 -4.2,0.8 -4.7,2.8l-0.2,0.7c-1.1,4.2 -1.4,8.6 -0.8,12.8l1.1,7.4c0.6,3.8 0.7,7.7 0.3,11.6l-0.7,7l1.4,13.8l24.8,0Z" style="fill:#dfe5f3;fill-rule:nonzero;"/><path d="M202.5,228.7c0,0 -22.9,1.7 -26.2,-13.8c0,0 -2.3,9.5 0,17.6c1.4,4.8 1.6,9.9 0.5,14.9c0,0 3.3,3 10.5,3l0,-11.6c2.5,2.5 3.9,5.9 4,9.5l0.1,3.9c0,0 1.8,3.3 10.2,3.8c0,0 3.6,-11.5 0.9,-27.3Z" style="fill:#5b383b;fill-rule:nonzero;"/><path d="M180.3,153.8c0,0 -2.7,4.7 -1.9,8.3c0.8,3.6 16.6,-6.8 16.6,-6.8l-4.7,-3.9l-5.2,0.8l-4.8,1.6Z" style="fill:#ffe9b3;fill-rule:nonzero;"/><path d="M217,193.8c0.1,-1.7 -0.1,-3.3 -0.6,-4.9c-0.2,-1.5 -0.4,-2.9 -0.5,-4.4c0.1,-0.2 0,-0.5 -0.1,-0.7l-0.1,0l-0.7,0.4l-0.9,2.4l0,0.1c-0.1,0 -0.1,0.1 -0.2,0.1c-0.6,0.4 -1.3,0.7 -2,0.8c-1.1,0 -2.1,-0.5 -3.2,-0.2c-0.1,0 -0.2,0.1 -0.2,0.1c-0.1,0.1 -0.1,0.2 -0.1,0.2c-0.1,0.5 0,1.1 0.3,1.6c0.3,0.4 0.8,0.6 1,0.9c1.5,1.9 2.3,4.1 2.4,6.5l-0.1,0.2c-0.5,0.7 -1.5,3.3 -2.3,3.5c-1,0.3 -1.8,-3.1 -5.1,-5.1c-0.9,0.9 -0.1,3.4 -0.9,4.3l-1.3,1.4l-0.6,0.7c-0.2,0.2 -1.2,0.8 -1.4,1c0.3,0.3 1.1,1.7 2.6,3.5c1,1.2 2.5,2.7 4,3.1c1.4,0.2 2.9,-0.2 4,-1.1c4.3,-3.2 5.8,-9 6,-14.4Z" style="fill:#f0b7cf;fill-rule:nonzero;"/><path d="M228.5,174.4c-0.3,-0.3 -0.7,-0.5 -1.2,-0.6c-0.4,-0.1 -0.9,0.1 -1.2,0.4c-0.3,0.3 -0.6,0.7 -0.7,1.1c-0.1,0.4 -0.2,0.7 -0.2,1.1c0,0.3 0.1,0.6 0.1,1c0,0.6 -0.2,1.1 -0.5,1.6c-0.1,0.2 -0.3,0.5 -0.1,0.6l0.3,0c1,-0.1 1.9,-0.1 2.9,0c0,0 1.4,-0.1 1.5,-0.6c0.1,-0.5 0.2,-1 0.2,-1.5c0,-0.6 -0.2,-1.2 -0.4,-1.7c-0.2,-0.6 -0.4,-1 -0.7,-1.4Z" style="fill:#d8a0ba;fill-rule:nonzero;"/><path d="M208.1,196.2c-2.1,-2.6 -3.9,-5.4 -5.6,-8.4c-0.4,-0.8 -0.9,-1.5 -1.5,-2.2c-0.6,-0.7 -1.5,-1.1 -2.4,-1c-1.2,0.2 -2.2,1 -2.7,2.1c-2,3.3 -2.2,7.3 -0.6,10.8c0.6,1.3 1.5,2.5 2.4,3.6l3.2,3.7c3.2,-1.4 5.8,-3.9 7.3,-7.1c0.1,-0.2 0.2,-0.4 0.2,-0.7c0,-0.3 -0.1,-0.6 -0.3,-0.8Z" style="fill:#dfe5f3;fill-rule:nonzero;"/><path d="M196.8,291.2c0,0 6.5,-1.4 8.1,-1.2c1.6,0.2 4.2,1.8 4.1,3.5c-0.1,1.7 -2.8,2.8 -5.6,4c-1.8,0.8 -6.4,2.4 -9.3,3.4c-1.8,0.6 -3.7,0.2 -5.1,-1.1c-0.9,-0.9 -1.8,-1.9 -1.8,-2.5c0.1,-0.9 0.4,-2.8 0.6,-4c0.1,-0.7 0.7,-1.2 1.4,-1.1c2,0.1 5.7,0.2 7.6,-1Z" style="fill:#5b383b;fill-rule:nonzero;"/><path d="M207.2,158l0,-0.2l0,-0.1c0,0 0,-0.1 -0.1,-0.2l-0.1,-0.1c0,0 0,-0.1 -0.1,-0.1l-0.1,-0.2l-0.1,-0.2l-0.1,-0.1l-0.2,-0.3c-0.1,-0.1 -0.1,-0.2 -0.2,-0.3l-0.2,-0.2l-0.1,-0.2l-0.1,-0.1c0,-0.1 -0.1,-0.1 -0.1,-0.1l-0.1,-0.1l-0.1,-0.1l-0.1,-0.1l-0.1,-0.1l-0.1,-0.1l-0.1,-0.1l-0.1,-0.1l-0.1,-0.1l-0.1,-0.1l-0.1,-0.1l-0.3,-0.2l-8,-4.7l-0.3,-0.2l-0.1,-0.1l-0.1,-0.1l-0.1,-0.1l-0.1,0l-0.1,0l-0.1,0l-0.1,0l-0.1,0l-0.3,0l-0.4,0l-0.2,0l-0.2,0.1l-0.2,0.1l-3.4,2c0.1,-0.1 0.3,-0.1 0.4,-0.2l0.5,0c0.2,0 0.4,0.1 0.5,0.1c0.2,0.1 0.4,0.2 0.6,0.3l0.3,0.2l7.7,4.5l0.3,0.2c0.2,0.1 0.5,0.3 0.7,0.5c0.2,0.2 0.4,0.4 0.6,0.6c0.2,0.2 0.4,0.4 0.5,0.7c0.2,0.2 0.3,0.5 0.4,0.8c0.1,0.3 0.3,0.5 0.4,0.8c0.1,0.3 0.2,0.5 0.2,0.8c0.1,0.3 0.1,0.5 0.1,0.8c0,0.3 0,0.5 -0.1,0.8c0,0.3 -0.1,0.5 -0.3,0.7c-0.1,0.2 -0.3,0.4 -0.5,0.5l3.4,-2c0.2,-0.1 0.4,-0.3 0.5,-0.5l0.1,-0.2c0,-0.1 0,-0.1 0.1,-0.2l0.1,-0.1l0,-0.1l0,-0.1l0,-0.1l0,-0.2l0,-0.2l0,-0.2l0,-0.3l0.2,0l0,-0.1l0,-0.1l0,-0.2l0,-0.2l0,-0.2l0,-0.1l0,-0.1l0,-0.2" style="fill:#65b1fc;fill-rule:nonzero;"/><path d="M201,156.2c1.8,1.1 3.3,3.9 2.9,5.8c-0.3,1.5 -1.6,1.8 -3.1,1l-0.1,-0.1c-1.1,-0.7 -1.9,-1.7 -2.4,-2.8c-0.3,-0.6 -0.7,-1.2 -1.3,-1.5l-0.4,-0.2c-0.4,-0.3 -0.9,-0.3 -1.3,0.1c-0.7,0.6 -1.7,0.6 -2.4,0l-0.1,-0.1c-1.6,-1 -2.7,-2.6 -3.1,-4.5c-0.4,-2.4 1.1,-3.5 2.9,-2.4l0.3,0.2l7.7,4.5l0.4,0Z" style="fill:#65b1fc;fill-rule:nonzero;"/><path d="M202.3,162.5c-0.3,0 -0.7,-0.1 -1,-0.3l-0.2,-0.1c-0.9,-0.6 -1.6,-1.4 -2,-2.4c-0.3,-0.8 -0.9,-1.5 -1.7,-2l-0.4,-0.2c-0.3,-0.2 -0.7,-0.3 -1.1,-0.3c-0.5,0 -1,0.2 -1.3,0.6c-0.1,0.1 -0.2,0.2 -0.4,0.2c-0.3,0 -0.6,-0.1 -0.8,-0.3l-0.1,-0.1c-1.3,-0.9 -2.3,-2.2 -2.6,-3.8c-0.1,-0.5 -0.1,-1.1 0.2,-1.5c0.1,-0.1 0.3,-0.2 0.4,-0.2c0.3,0 0.6,0.1 0.8,0.3l8.3,4.8c1.5,0.9 2.7,3.3 2.4,4.8c0,0.4 -0.2,0.5 -0.5,0.5Z" style="fill:#5b383b;fill-rule:nonzero;"/><path d="M201,160.8c0,-2.4 -0.3,-4.8 -0.9,-7.1l-7.7,1.6c-1.1,0.9 -1.9,2.1 -2.4,3.4c-0.1,0.5 -0.2,1 -0.2,1.6c-0.1,2.8 -0.2,5.7 1.2,8.1c0.6,1 1.4,1.9 2.4,2.7c0.7,0.6 1.5,0.9 2.4,1c1.2,0 2.4,-0.7 3.1,-1.7c1,-1.4 1.7,-3 1.9,-4.7c0.2,-1.5 0.3,-3.2 0.2,-4.9Z" style="fill:#f0b7cf;fill-rule:nonzero;"/><path d="M199.6,148.2c-1.4,-0.7 -2.9,-1.1 -4.5,-1.2c-2.5,-0.1 -5.1,0.1 -7.5,0.8c-2.2,0.5 -4.2,1.5 -5.8,3.1c-1.4,1.7 -2.5,3.8 -3,5.9c-0.8,2 -1,4.2 -0.8,6.4c0.7,3.4 2.9,6.3 6,7.8c1.6,0.5 3.2,0.7 4.9,0.7c1.6,0 4,-0.1 4.3,-2.1c0.2,-1.5 -1,-3.3 0,-4.7c0.4,-0.6 2.2,-1.4 2.9,-0.7c0.2,0.9 0.3,1.8 0.4,2.7l1.6,0l0,-3.7c0,-0.2 0,-0.4 0.1,-0.6c0.1,-0.3 0.5,-0.5 0.7,-0.7c0.8,-0.7 0.9,-1.9 1.1,-3c0.3,-1.7 0.8,-3.3 1.5,-4.9c0.8,-1.6 0.5,-3.5 -0.7,-4.9c-0.4,-0.4 -0.8,-0.7 -1.2,-0.9Z" style="fill:#ffe9b3;fill-rule:nonzero;"/><path d="M203.3,158.9c0,0.2 -0.2,0.4 -0.3,0.5l-9.2,5.3c-0.5,0.3 -1,0.5 -1.5,0.7c-0.5,0.2 -1,0.4 -1.5,0.5l-0.3,0.1c-0.5,0.1 -0.9,0.2 -1.4,0.3l-0.2,0c-0.5,0.1 -1.1,0.1 -1.6,0.2l-0.3,0l-1.6,0l-0.4,0c-0.5,0 -0.9,-0.1 -1.4,-0.1l-0.4,-0.1c-0.3,0 -0.5,-0.1 -0.8,-0.2c-0.3,-0.1 -0.7,-0.2 -1,-0.2c-0.5,-0.1 -1,-0.3 -1.4,-0.5c-0.4,-0.2 -0.7,-0.3 -1,-0.5c-0.2,-0.1 -0.3,-0.2 -0.5,-0.3l-0.3,-0.2c-0.2,-0.2 -0.4,-0.3 -0.5,-0.4l-0.1,-0.1l-0.1,-0.1c-0.2,-0.2 -0.4,-0.4 -0.5,-0.6c-0.1,-0.1 -0.2,-0.2 -0.2,-0.3l-0.2,-0.3c-0.1,-0.1 -0.1,-0.3 -0.2,-0.4l-0.1,-0.2c-0.1,-0.2 -0.1,-0.4 -0.2,-0.6l0,-0.1c0,-0.2 0,-0.4 -0.1,-0.5l0,4.1c0,0.2 0,0.3 0.1,0.4c0.1,0.2 0,0.1 0,0.1c0,0.2 0.1,0.4 0.2,0.6l0.1,0.2c0.1,0.1 0.1,0.2 0.2,0.4c0.1,0.1 0.1,0.2 0.2,0.3c0.1,0.1 0.1,0.2 0.2,0.3c0.2,0.2 0.3,0.4 0.5,0.5l0.2,0.2c0.2,0.2 0.4,0.3 0.5,0.5l0.3,0.2l0.4,0.3l0.1,0c0.3,0.2 0.7,0.4 1,0.5c0.4,0.2 0.8,0.3 1.2,0.5c0.1,0 0.1,0 0.2,0.1c0.3,0.1 0.7,0.2 1,0.2c0.2,0 0.4,0.1 0.6,0.2l0.2,0l0.4,0.1l0.7,0.1l3.4,0l1,-0.1l0.4,0c0.2,0 0.5,-0.1 0.7,-0.1c0.2,-0.1 0.5,-0.1 0.7,-0.2l0.3,-0.1l0.1,0c0.5,-0.1 0.9,-0.3 1.3,-0.5c0.5,-0.2 1,-0.4 1.5,-0.7l9.2,-5.3c0.2,-0.1 0.3,-0.3 0.3,-0.5l0.1,-4.2Z" style="fill:#5b383b;fill-rule:nonzero;"/><path d="M179.1,156.5c-4.3,2.5 -4,6.6 1,8.8c4.4,1.8 9.4,1.5 13.7,-0.6l9.2,-5.3c0.3,-0.1 0.4,-0.4 0.3,-0.6c-0.1,-0.1 -0.2,-0.2 -0.3,-0.3c-0.5,-0.3 -1.1,-0.3 -1.6,0l-9.5,5.5c-3.3,1.9 -8.7,1.8 -11.7,-0.3c-2.6,-1.8 -2.1,-4.6 0.8,-6.3l9.2,-5.3c0.3,-0.1 0.4,-0.4 0.3,-0.6c-0.1,-0.1 -0.2,-0.3 -0.3,-0.3c-0.5,-0.3 -1.1,-0.3 -1.6,0l-9.5,5.3Z" style="fill:#5b383b;fill-rule:nonzero;"/><path d="M180.5,152.7c0,0 -2.8,4.8 -2,8.5c0.8,3.7 16.9,-6.9 16.9,-6.9l-4.8,-4l-5.3,0.8l-4.8,1.6Z" style="fill:#ffe9b3;fill-rule:nonzero;"/><path d="M267.4,101.8c0.2,-0.3 0.4,-0.6 0.7,-0.7c0.2,-0.1 0.4,-0.1 0.7,-0.1c1.5,0 2.1,0.8 3.3,1.3c0.6,0.2 1.2,0.4 1.8,0.6c0.3,0.2 0.7,0.2 1,0.2c1.5,-0.2 0.3,-3 1.1,-3.8c0.3,-0.3 0.6,-0.2 0.9,0.2c0.6,0.9 1.1,1.8 1.5,2.8c0.3,0.6 0.8,1.1 1.1,1.6c0.5,0.8 -0.1,1.9 1,2.4c0.6,0.2 1.2,0.3 1.8,0.4c0.8,0.2 1.6,0.5 2.4,0.8c1.6,0.5 3.1,1.1 4.7,1.6c0.9,0.4 1.9,0.5 2.8,0.2c0.3,-0.2 0.7,-0.4 0.9,-0.7c1.5,-1.3 7.5,-8.1 9.2,-9l5.2,5.3c-2.1,2.3 -8.8,9.9 -11.3,11.8c-0.5,0.5 -1.2,0.8 -1.9,1c-0.8,0.1 -1.5,0 -2.2,-0.3c-2.2,-0.7 -4.3,-1.4 -6.4,-2.3c-2.1,-0.9 -4.1,-2.1 -6,-3.4c-1.5,-1 -3.3,-1.7 -5.1,-2.1c-1.3,-0.3 -2.9,-0.2 -4,-1.1c-1.1,-0.8 -2.1,-1.7 -2.9,-2.9c-0.4,-0.8 -0.9,-2.7 -0.3,-3.8Z" style="fill:#f0b7cf;fill-rule:nonzero;"/><path d="M296.6,79c0.3,-0.2 0.7,-0.2 1,-0.1c0.2,0.1 0.4,0.2 0.6,0.3c1.2,0.9 1.2,1.9 1.8,3.1c0.3,0.6 0.7,1 1,1.6c0.2,0.3 0.4,0.6 0.7,0.8c1.3,0.8 2,-2.2 3.2,-2.4c0.4,0 0.6,0.2 0.6,0.7c-0.1,1.1 -0.2,2.1 -0.5,3.2c-0.1,0.6 0,1.3 -0.1,2c-0.1,0.9 -1.2,1.5 -0.6,2.5c0.4,0.5 0.8,1 1.2,1.4c0.5,0.7 1,1.4 1.5,2.1c0.9,1.4 1.9,2.7 2.8,4.1c0.4,0.9 1.2,1.5 2.1,1.9c0.4,0.1 0.8,0.1 1.2,0c2,-0.2 10.8,-1.9 12.8,-1.6l0.9,7.4c-3.1,0.5 -13,2.6 -16.1,2.6c-0.7,0.1 -1.4,-0.1 -2.1,-0.3c-0.6,-0.4 -1.2,-0.9 -1.6,-1.6c-1.3,-1.9 -2.7,-3.7 -3.8,-5.7c-1.1,-2 -2,-4.1 -2.7,-6.3c-0.6,-1.8 -1.6,-3.4 -2.8,-4.8c-0.9,-1 -2.2,-1.9 -2.6,-3.3c-0.4,-1.3 -0.6,-2.7 -0.6,-4c0.2,-1.3 1,-3 2.1,-3.6Z" style="fill:#f0b7cf;fill-rule:nonzero;"/><path d="M319.4,157.8l-0.1,10.6c0,0.6 0,1.1 0.1,1.7l4.6,19.4l-9.4,-0.9c0.3,1.7 1.2,3.2 2.6,4.3c0,0 14,5.1 13.8,3.1l-0.6,-4.3l0,-11.7c0,-2.9 -0.5,-5.9 -1.4,-8.7l-0.8,-2.5c-0.3,-0.9 -0.5,-1.9 -0.5,-2.8l-0.2,-11.5l-8.1,3.3Z" style="fill:#f0b7cf;fill-rule:nonzero;"/><path d="M323.7,188.9c0,0 -7.4,-2.4 -9,-2.3c-1.6,0.1 -3.3,2.3 -3.3,4c0,1.7 2.6,3 5.3,4.4c1.8,0.9 6.2,2.8 9.1,3.9c1.7,0.7 3.7,0.4 5.1,-0.8c1,-0.9 1.9,-1.8 1.9,-2.4c0,-0.9 -1,-3.4 -1.1,-4.6c-0.1,-0.7 -1.1,-1.2 -1.8,-1.2c-1.9,-0.1 -4.3,0.3 -6.2,-1Z" style="fill:#65b1fc;fill-rule:nonzero;"/><path d="M312.2,78.1l10,0.7l-0.7,3.9c0,0.4 -0.2,0.9 -0.5,1.2c-0.4,0.3 -0.8,0.5 -1.3,0.6c-2.4,0.7 -4.9,1.3 -7.4,1.8c-0.1,-0.7 -0.2,-1.5 -0.1,-2.2l0,-6Z" style="fill:#d8a0ba;fill-rule:nonzero;"/><path d="M304.8,161.9l0,9.5c0,0.9 0.1,1.7 0.2,2.6l4,26.1l-6.6,-1.3c-1.4,0 -2.7,0.3 -3.9,0.9c-1.1,0.6 -1.6,2 -1,3.1c0.3,0.5 0.7,0.9 1.2,1.1l12.7,5c1.6,0.7 3.5,0.3 4.8,-0.9c1.2,-1.2 1.7,-2.9 1.3,-4.6l-1.2,-4.2c-0.1,-0.3 -0.1,-0.7 -0.2,-1.1l-0.1,-11.1c0,-3.4 -0.5,-6.7 -1.3,-9.9l-1.6,-6l0.4,-11.7l-8.7,2.5Z" style="fill:#f0b7cf;fill-rule:nonzero;"/><path d="M303.2,137.1l2.1,-21.5c0.2,-2 0.1,-4 -0.2,-6l-2.2,-12.3c-0.4,-2.4 0.5,-4.9 2.4,-6.4l7.3,-4.6c3.5,-2.2 7.2,-3.9 11.2,-5.1l0.6,-0.2c2.1,-0.5 4.1,0.8 4.7,2.8l0.2,0.7c1.2,4.2 1.4,8.6 0.8,12.8l-1.1,7.4c-0.6,3.8 -0.7,7.7 -0.3,11.6l0.7,7l-1.4,13.8l-24.8,0Z" style="fill:#65b1fc;fill-rule:nonzero;"/><path d="M303.2,137.1c0,0 22.9,1.7 26.2,-13.8c0,0 2.3,9.4 0,17.6c-1.4,4.8 -1.6,10 -0.5,14.9c0,0 -3.3,3 -10.5,3l0,-11.6c-2.5,2.6 -3.9,6 -3.9,9.5l-0.1,3.9c0,0 -1.8,3.3 -10.2,3.8c-0.1,0 -3.6,-11.5 -1,-27.3Z" style="fill:#ffe9b3;fill-rule:nonzero;"/><path d="M296.9,103.1c2.1,-2.6 3.9,-5.5 5.6,-8.4c0.4,-0.8 0.9,-1.5 1.5,-2.2c0.6,-0.7 1.5,-1.1 2.4,-1c1.2,0.2 2.2,1 2.7,2.1c2,3.3 2.2,7.3 0.6,10.8c-0.6,1.3 -1.5,2.5 -2.4,3.5l-3.2,3.7c-3.2,-1.4 -5.8,-3.9 -7.3,-7.1c-0.1,-0.2 -0.2,-0.4 -0.2,-0.7c0,-0.2 0.1,-0.5 0.3,-0.7Z" style="fill:#dfe5f3;fill-rule:nonzero;"/><path d="M308.9,199.6c0,0 -6.5,-1.4 -8.1,-1.2c-1.6,0.2 -4.2,1.8 -4.1,3.5c0.1,1.7 2.8,2.8 5.6,4c1.8,0.8 6.4,2.4 9.3,3.4c1.8,0.6 3.7,0.2 5,-1.1c0.9,-0.9 1.8,-1.9 1.8,-2.5c-0.1,-0.9 -0.4,-2.8 -0.6,-4c-0.1,-0.7 -0.7,-1.2 -1.4,-1.1c-1.9,0.2 -5.6,0.2 -7.5,-1Z" style="fill:#65b1fc;fill-rule:nonzero;"/><path d="M305.4,69.9c0,-2.4 0.3,-4.8 0.9,-7.1l7.7,1.6c1.1,0.9 1.9,2.1 2.4,3.4c0.1,0.5 0.2,1 0.2,1.6c0.1,2.8 0.2,5.7 -1.2,8.1c-0.6,1 -1.4,1.9 -2.4,2.7c-0.7,0.6 -1.5,0.9 -2.4,1c-1.2,0 -2.4,-0.6 -3.1,-1.6c-1,-1.3 -1.7,-3 -1.9,-4.6c-0.3,-1.7 -0.3,-3.4 -0.2,-5.1Z" style="fill:#f0b7cf;fill-rule:nonzero;"/><path d="M306.8,57.2c1.4,-0.7 2.9,-1.1 4.5,-1.2c2.5,-0.1 5.1,0.1 7.5,0.8c2.2,0.5 4.2,1.5 5.8,3.1c1.4,1.7 2.5,3.8 3.1,5.9c0.7,2 1,4.2 0.8,6.4c-0.7,3.4 -2.9,6.3 -6,7.8c-1.6,0.5 -3.2,0.7 -4.9,0.7c-1.6,0 -4,-0.1 -4.3,-2.1c-0.2,-1.5 1,-3.3 0,-4.7c-0.4,-0.6 -2.2,-1.4 -2.8,-0.7c-0.2,0.9 -0.3,1.8 -0.4,2.7l-1.6,0l0,-3.7c0,-0.2 0,-0.4 -0.1,-0.6c-0.1,-0.3 -0.5,-0.5 -0.7,-0.7c-0.8,-0.7 -0.9,-1.9 -1.1,-3c-0.3,-1.7 -0.8,-3.3 -1.5,-4.8c-0.8,-1.6 -0.5,-3.6 0.7,-4.9c0.3,-0.5 0.6,-0.7 1,-1Z" style="fill:#5b383b;fill-rule:nonzero;"/><path d="M325.9,61.8c0,0 2.8,4.7 2,8.5c-0.8,3.7 -16.9,-6.9 -16.9,-6.9l4.8,-4l5.3,0.8l4.8,1.6Z" style="fill:#5b383b;fill-rule:nonzero;"/><path d="M118.6,64.8c3.5,2 6.3,0.4 6.3,-3.6c-0.2,-4.4 -2.6,-8.5 -6.3,-10.9c-3.5,-2 -6.3,-0.4 -6.3,3.6c0.3,4.5 2.6,8.5 6.3,10.9Zm0,-2.1c-0.6,-1.2 -0.9,-2.5 -1,-3.8c0.3,0.2 0.7,0.4 1,0.6c0.3,0.2 0.7,0.4 1,0.5c-0.2,1.9 -0.7,2.7 -1,2.7Zm4.5,-3.9c-0.5,0.2 -1,0.2 -1.4,0c0,-1.4 -0.2,-2.8 -0.5,-4.2c0.8,1.2 1.5,2.6 1.9,4.2Zm-1.6,2.1c0.5,0.2 1,0.3 1.6,0.3c-0.1,1.1 -1,2 -2.1,2.2c0.3,-0.9 0.4,-1.7 0.5,-2.5Zm-2.8,-8.5c0.3,0.4 1.1,2.6 1.1,5.7c-0.4,-0.2 -0.7,-0.4 -1.1,-0.6c-0.4,-0.2 -0.8,-0.5 -1.1,-0.7c-0.1,-3.1 0.7,-4.4 1.1,-4.4Zm-4.4,3.6c0.5,0.5 1,1 1.6,1.5c0.1,1 0.2,2 0.5,3c-1.1,-1.2 -1.9,-2.8 -2.1,-4.5Zm1.5,-0.6c-0.6,-0.5 -1,-1.1 -1.4,-1.7c0.2,-1 1,-1.8 2,-1.9c-0.5,1.1 -0.6,2.4 -0.6,3.6Z" style="fill:#65b1fc;fill-rule:nonzero;"/><path d="M96.7,87.7l7.6,-4.4c1.3,-0.8 2.4,-0.1 2.4,1.4l0,4.2c-0.1,1.7 -1,3.2 -2.4,4.1l-0.3,0.2l0,2.8l-2.4,-1.4l-5,2.9c-1.3,0.7 -2.4,0.1 -2.4,-1.4l0,-4.2c0.3,-1.8 1.1,-3.3 2.5,-4.2Z" style="fill:#ffe9b3;fill-rule:nonzero;"/><path d="M55.5,109l4.8,2.8l-0.4,-2.7c-0.3,-1.4 -1,-2.7 -2,-3.7l-1.2,-1.1c-0.2,-0.5 -0.4,-0.9 -0.5,-1.4c1,0.4 1.7,0.2 1.7,-0.5l0,-0.3l-0.1,-0.3l0.1,0.1c0.4,0.2 0.7,0.2 0.7,-0.3c0,-0.5 -0.2,-0.9 -0.6,-1.2c0.5,-0.9 0.6,-1.9 0.2,-2.8c-0.2,-0.4 -0.5,-0.8 -0.9,-1.1c-0.1,-0.1 -0.3,-0.1 -0.4,-0.1c-0.5,-1.1 -1.3,-2 -2.4,-2.7c-0.6,-0.3 -1.2,-0.4 -1.9,-0.3c-1.6,0.3 -1.3,2.1 -0.9,3.5c-0.2,0 -0.3,0.3 -0.3,0.6c0,0.5 0.3,0.9 0.7,1.2l0.2,0.1l-0.1,0.2l0,0.3c0.2,1 0.8,1.9 1.7,2.5c-0.1,0.3 -0.3,0.6 -0.5,0.9l-1.2,-0.3c-0.8,-0.2 -1.7,0.2 -1.9,1.1c0,0.1 0,0.2 -0.1,0.3l-0.4,2.2l4.8,2.8l0.9,0.2Z" style="fill:#5b383b;fill-rule:nonzero;"/><path d="M266.1,150.3l-0.3,-0.2c-0.5,-0.3 -1.1,-0.5 -1.6,-0.7c-1.5,-0.5 -2.9,-1.2 -4.3,-2l-4.1,-2.3c-1.5,-0.9 -3,-1.9 -4.3,-3c-0.5,-0.4 -1,-0.8 -1.6,-1.1l-0.3,-0.2c-3.8,-2 -7,-0.3 -7.2,4c-0.3,4.9 3.2,11 7.5,13.5c3.1,1.8 5.8,1.1 6.9,-1.3c0.2,-0.4 0.6,-0.4 1,-0.2c0.5,0.3 0.9,0.8 1,1.4c1.1,3.8 3.8,7.5 6.9,9.3c4.3,2.5 7.8,0.3 7.5,-4.8c-0.4,-5.1 -3.1,-9.6 -7.1,-12.4Zm-17.3,-5.2c0,-0.3 0.2,-0.4 0.4,-0.2l1.2,0.7c0.2,0.2 0.4,0.4 0.4,0.7l0,1.6c0,0.1 0,0.2 -0.1,0.3l-0.6,0.2l-0.3,0c-0.1,-0.1 -0.2,-0.2 -0.3,-0.3l-0.6,-0.9c-0.1,-0.1 -0.1,-0.3 -0.1,-0.4l0,-1.7Zm-0.6,4.4c-0.1,0.1 -0.2,0.1 -0.3,0l-1.4,-0.8c-0.2,-0.2 -0.4,-0.4 -0.4,-0.7l0,-1.4c0,-0.3 0.2,-0.4 0.4,-0.2l1.4,0.8c0.1,0.1 0.2,0.2 0.3,0.3l0.5,1c0.1,0.2 0.1,0.5 0,0.6l-0.5,0.4Zm2.6,4.3c0,0.3 -0.2,0.4 -0.4,0.2l-1.2,-0.7c-0.2,-0.2 -0.4,-0.4 -0.4,-0.7l0,-1.6c0,-0.1 0.1,-0.2 0.2,-0.3l0.6,-0.2l0.3,0c0.1,0.1 0.2,0.2 0.3,0.3l0.6,0.9c0.1,0.1 0.1,0.3 0.1,0.4l-0.1,1.7Zm2.7,-1.5c0,0.3 -0.2,0.4 -0.4,0.2l-1.4,-0.8c-0.1,-0.1 -0.2,-0.2 -0.3,-0.3l-0.6,-1c-0.1,-0.2 -0.1,-0.5 0,-0.6l0.5,-0.4c0.1,-0.1 0.2,-0.1 0.3,0l1.4,0.8c0.2,0.2 0.4,0.4 0.4,0.7l0.1,1.4Zm3.5,-1.5l-1.4,-0.8c-0.2,-0.1 -0.3,-0.4 -0.3,-0.6c0,-0.2 0.2,-0.3 0.3,-0.2l1.4,0.8c0.2,0.1 0.3,0.4 0.3,0.6c0,0.2 -0.2,0.3 -0.3,0.2Zm8.8,2.8c1,0.6 1.6,1.7 1.6,2.8c0,1.1 -0.7,1.5 -1.6,0.9c-1,-0.6 -1.6,-1.7 -1.6,-2.8c-0.1,-1 0.6,-1.4 1.6,-0.9Zm-5.8,-1.1l-1.4,-0.8c-0.2,-0.1 -0.3,-0.4 -0.3,-0.6c0,-0.2 0.2,-0.3 0.3,-0.2l1.4,0.8c0.2,0.1 0.3,0.3 0.3,0.6c0,0.3 -0.2,0.4 -0.3,0.2Zm3,6.5c-1,-0.6 -1.6,-1.7 -1.6,-2.8c0,-1 0.7,-1.5 1.6,-0.9c1,0.6 1.6,1.7 1.6,2.8c0,1 -0.7,1.4 -1.6,0.9Zm2.8,4.7c-1,-0.6 -1.6,-1.7 -1.6,-2.8c0,-1 0.7,-1.5 1.7,-0.9c1,0.6 1.6,1.7 1.6,2.8c-0.1,1.1 -0.9,1.5 -1.7,0.9Zm2.7,-1.5c-1,-0.6 -1.6,-1.7 -1.6,-2.8c0,-1 0.7,-1.5 1.7,-0.9c1,0.6 1.6,1.7 1.6,2.8c-0.1,1 -0.8,1.4 -1.7,0.9Z" style="fill:#ffe9b3;fill-rule:nonzero;"/><path d="M346.9,65.9c-1.1,-0.6 -1.9,-0.1 -1.9,1.1c0.1,1.3 0.8,2.6 1.9,3.3c1.1,0.6 1.9,0.1 1.9,-1.1c-0.1,-1.3 -0.8,-2.6 -1.9,-3.3Z" style="fill:#5b383b;fill-rule:nonzero;"/><path d="M343.5,60.5l6.8,3.9l-1,-3l-4.8,-2.8l-1,1.9Z" style="fill:#5b383b;fill-rule:nonzero;"/><path d="M352.5,66.3l-1,-0.6l-9.2,-5.3l-1,-0.6c-0.7,-0.4 -1.2,-0.1 -1.2,0.7l0,7.6c0.1,0.8 0.5,1.6 1.2,2l11.2,6.5c0.7,0.4 1.2,0.1 1.2,-0.7l0,-7.6c-0.1,-0.7 -0.5,-1.5 -1.2,-2Zm-5.7,5.5c-1.9,-1.2 -3.1,-3.3 -3.2,-5.6c0,-2.1 1.5,-2.9 3.3,-1.8c1.9,1.2 3.1,3.3 3.2,5.6c0,2 -1.5,2.9 -3.3,1.8Zm5.3,-3.4l-1.8,-1c-0.4,-0.2 -0.6,-0.7 -0.6,-1.1c0,-0.4 0.3,-0.6 0.6,-0.4l1.8,1c0.4,0.2 0.6,0.7 0.6,1.1c0,0.5 -0.3,0.6 -0.6,0.4Z" style="fill:#5b383b;fill-rule:nonzero;"/><path d="M43.4,58.5l-4.1,-6c-0.1,0.2 -0.1,0.4 -0.1,0.6l0,6.6l4.2,-1.2Z" style="fill:#fff;fill-rule:nonzero;"/><path d="M50.3,62.4l4.1,6l0,-0.4l0,-6.2c0,-0.2 0,-0.5 -0.1,-0.7l-4,1.3Z" style="fill:#fff;fill-rule:nonzero;"/><path d="M47.6,63.3c-0.2,0.1 -0.5,0 -0.7,-0.1c-0.3,-0.2 -0.5,-0.4 -0.7,-0.7l-2,-3l-4.5,1.3c0.3,0.7 0.8,1.3 1.5,1.7l11.5,6.6c0.4,0.3 1.1,0.3 1.5,0l-4.5,-6.5l-2.1,0.7Z" style="fill:#fff;fill-rule:nonzero;"/><path d="M46.8,62.2l0.2,0l6.9,-2.1c-0.3,-0.6 -0.8,-1.1 -1.4,-1.5l-11.4,-6.6c-0.4,-0.3 -0.9,-0.3 -1.4,-0.1l6.9,10.1c0.1,0 0.1,0.1 0.2,0.2Z" style="fill:#fff;fill-rule:nonzero;"/></g></g></svg>