<?xml version="1.0" encoding="UTF-8" standalone="no"?><!DOCTYPE svg PUBLIC "-//W3C//DTD SVG 1.1//EN" "http://www.w3.org/Graphics/SVG/1.1/DTD/svg11.dtd"><svg width="100%" height="100%" viewBox="0 0 79 79" version="1.1" xmlns="http://www.w3.org/2000/svg" xmlns:xlink="http://www.w3.org/1999/xlink" xml:space="preserve" xmlns:serif="http://www.serif.com/" style="fill-rule:evenodd;clip-rule:evenodd;stroke-linejoin:round;stroke-miterlimit:2;"><rect id="Artboard1" x="-78.125" y="-78.125" width="781.25" height="625" style="fill:none;"/><path d="M53.125,53.125l-6.25,0l0,9.375l6.25,0l0,-9.375Zm-9.375,0l-9.375,0l0,9.375l9.375,0l0,-9.375Zm-12.5,0l-6.25,0l0,9.375l6.25,0l0,-9.375Zm25,0l0,9.375c0,1.725 -1.4,3.125 -3.125,3.125l-28.125,0c-1.725,0 -3.125,-1.4 -3.125,-3.125l0,-9.375c0,-1.725 1.4,-3.125 3.125,-3.125l28.125,0c1.725,0 3.125,1.4 3.125,3.125m18.75,-4.688c0,-0.862 -0.7,-1.562 -1.563,-1.562l-1.562,0l0,9.375l1.563,0c0.862,0 1.562,-0.7 1.562,-1.563l0,-6.249Zm-6.25,-18.75c0,-0.863 -0.7,-1.563 -1.563,-1.563l-56.25,0c-0.862,0 -1.562,0.7 -1.562,1.563l0,40.625c0,0.862 0.7,1.562 1.563,1.562l56.25,0c0.862,0 1.562,-0.7 1.562,-1.562l0,-40.625Zm-62.5,26.562l0,-9.375l-1.563,0c-0.862,0 -1.562,0.7 -1.562,1.563l0,6.25c0,0.862 0.7,1.562 1.563,1.562l1.562,0Zm32.813,-40.625c2.584,0 4.687,-2.103 4.687,-4.687c0,-2.585 -2.103,-4.688 -4.688,-4.688c-2.584,0 -4.687,2.103 -4.687,4.688c0,2.584 2.103,4.687 4.688,4.687m39.062,32.813l0,6.25c0,2.59 -2.097,4.687 -4.688,4.687l-1.562,0l0,10.938c0,2.59 -2.097,4.687 -4.688,4.687l-56.25,0c-2.59,0 -4.687,-2.097 -4.687,-4.687l0,-10.938l-1.562,0c-2.591,0 -4.688,-2.097 -4.688,-4.687l0,-6.25c0,-2.591 2.097,-4.688 4.688,-4.688l1.562,0l0,-14.062c0,-2.591 2.097,-4.688 4.688,-4.688l26.562,0l0,-6.406c-3.566,-0.725 -6.25,-3.878 -6.25,-7.656c0,-4.316 3.497,-7.813 7.813,-7.813c4.315,0 7.812,3.497 7.812,7.813c0,3.778 -2.684,6.931 -6.25,7.656l0,6.406l26.563,0c2.59,0 4.687,2.097 4.687,4.688l0,14.062l1.563,0c2.59,0 4.687,2.097 4.687,4.688m-23.438,-10.938l-6.249,0c-0.863,0 -1.563,0.7 -1.563,1.563c0,0.862 0.7,1.562 1.563,1.562l6.25,0c0.862,0 1.562,-0.7 1.562,-1.562c0,-0.863 -0.7,-1.563 -1.562,-1.563m-32.813,1.563c0,-0.863 0.7,-1.563 1.563,-1.563l6.25,0c0.862,0 1.562,0.7 1.562,1.563c0,0.862 -0.7,1.562 -1.562,1.562l-6.25,0c-0.863,0 -1.563,-0.7 -1.563,-1.562" style="fill:#353638;fill-rule:nonzero;"/></svg>