<?xml version="1.0" encoding="UTF-8" standalone="no"?><!DOCTYPE svg PUBLIC "-//W3C//DTD SVG 1.1//EN" "http://www.w3.org/Graphics/SVG/1.1/DTD/svg11.dtd"><svg width="100%" height="100%" viewBox="0 0 79 79" version="1.1" xmlns="http://www.w3.org/2000/svg" xmlns:xlink="http://www.w3.org/1999/xlink" xml:space="preserve" xmlns:serif="http://www.serif.com/" style="fill-rule:evenodd;clip-rule:evenodd;stroke-linejoin:round;stroke-miterlimit:2;"><rect id="Artboard1" x="-468.75" y="0" width="781.25" height="625" style="fill:none;"/><path d="M43.75,52.691c-3.447,-2.588 -10.938,-10.825 -10.938,-13.628c0.001,-2.585 2.104,-4.688 4.688,-4.688c1.478,0 2.841,0.694 3.741,1.909l2.509,3.366l2.509,-3.366c0.9,-1.215 2.263,-1.909 3.741,-1.909c2.584,0 4.688,2.103 4.688,4.688c-0.001,2.8 -7.491,11.037 -10.938,13.628m6.25,-21.441c-2.569,0 -4.828,1.253 -6.25,3.166c-1.422,-1.913 -3.681,-3.166 -6.25,-3.166c-4.316,0 -7.813,3.497 -7.813,7.813c0,5.503 12.513,17.187 14.041,17.187l0.044,0c1.528,0 14.041,-11.684 14.041,-17.187c-0.001,-4.316 -3.497,-7.813 -7.813,-7.813m18.75,42.188c0,0.862 -0.7,1.562 -1.563,1.562l-50,0c-0.862,0 -1.562,-0.7 -1.562,-1.562l0,-59.375c0,-0.866 0.7,-1.563 1.563,-1.563l50,0c0.862,0 1.562,0.697 1.562,1.563l0,59.375Zm-56.25,-59.375l0,51.562l-4.688,0c-0.859,0 -1.562,-0.703 -1.562,-1.562l0,-59.375c0,-0.863 0.703,-1.563 1.563,-1.563l50,0c0.859,0 1.562,0.7 1.562,1.563l0,4.687l-42.188,0c-2.587,0 -4.687,2.1 -4.687,4.688m54.688,-4.688l-4.688,0l0,-4.687c0,-2.585 -0.541,-4.688 -3.125,-4.688l-51.563,0c-2.584,0 -4.687,2.103 -4.687,4.688l0,59.375c0,2.584 2.103,4.687 4.688,4.687l4.687,0l0,4.688c0,2.587 2.1,4.687 4.688,4.687l50,0c2.587,0 4.687,-2.1 4.687,-4.687l0,-59.375c0,-2.588 -2.1,-4.688 -4.687,-4.688" style="fill:#353638;fill-rule:nonzero;"/></svg>