<?xml version="1.0" encoding="UTF-8" standalone="no"?><!DOCTYPE svg PUBLIC "-//W3C//DTD SVG 1.1//EN" "http://www.w3.org/Graphics/SVG/1.1/DTD/svg11.dtd"><svg width="100%" height="100%" viewBox="0 0 79 79" version="1.1" xmlns="http://www.w3.org/2000/svg" xmlns:xlink="http://www.w3.org/1999/xlink" xml:space="preserve" xmlns:serif="http://www.serif.com/" style="fill-rule:evenodd;clip-rule:evenodd;stroke-linecap:round;stroke-linejoin:round;stroke-miterlimit:2;"><rect id="Artboard1" x="-312.5" y="0" width="781.25" height="625" style="fill:none;"/><path d="M100,112.769l46.294,-31.519l6.831,10.247l0,10.247l-10.247,-0l0,10.247l-10.247,-0l0,10.247l-10.247,-0l0,10.246l-8.381,0m-2.89,5.807l-1.708,9.564l-5.465,4.099c-3.074,2.049 -7.173,1.366 -9.564,-1.708l-11.955,-16.737c-2.049,-3.074 -1.366,-7.173 1.708,-9.564l11.272,-7.856l15.712,22.202m-17.42,-12.638l-5.465,3.757l11.955,16.737l5.465,-4.099l-11.955,-16.395Z" style="fill:none;fill-rule:nonzero;stroke:#353638;stroke-width:3.13px;"/><path d="M69.814,17.361c1.332,-1.296 2.064,-3.034 2.061,-4.892c-0.003,-1.859 -0.741,-3.595 -2.078,-4.887c-1.336,-1.291 -3.095,-1.971 -4.953,-1.91c-1.858,0.06 -3.57,0.851 -4.821,2.226l-0.63,0.694l-0.634,-0.635c-2.003,-2.003 -4.666,-3.107 -7.499,-3.107c-2.833,0 -5.497,1.104 -7.499,3.107c-2.003,2.003 -3.106,4.666 -3.106,7.499c0,2.833 1.103,5.497 3.106,7.5l1.349,1.349l-2.719,2.99c-3.813,4.195 -7.576,8.463 -11.281,12.791l-3.784,-3.785c-1.873,-1.872 -4.363,-2.904 -7.012,-2.904c-2.648,0 -5.138,1.032 -7.011,2.904c-1.873,1.873 -2.904,4.363 -2.904,7.012c0,2.65 1.031,5.141 2.904,7.013l5.115,5.116c-4.049,5.073 -8.01,10.207 -11.865,15.387c-0.46,0.617 -0.389,1.48 0.164,2.015c0.296,0.286 0.68,0.431 1.065,0.431c0.337,-0 0.675,-0.111 0.955,-0.335c5.014,-4.003 9.978,-8.108 14.88,-12.299l4.793,4.793c0.299,0.299 0.691,0.448 1.083,0.448c0.392,0 0.784,-0.149 1.083,-0.448c0.598,-0.598 0.598,-1.568 0,-2.166l-4.629,-4.63c3.463,-2.993 6.892,-6.028 10.283,-9.101l5.744,5.744c2.567,2.567 5.98,3.981 9.61,3.981c3.631,-0 7.044,-1.414 9.611,-3.981c2.568,-2.567 3.982,-5.98 3.982,-9.611c0,-3.63 -1.414,-7.043 -3.982,-9.61l-5.226,-5.226l10.673,-10.386c0.521,0.892 0.8,1.909 0.8,2.969c-0,1.576 -0.614,3.058 -1.729,4.173l-0.492,0.493c-0.599,0.598 -0.598,1.568 -0,2.166c0.299,0.299 0.691,0.448 1.082,0.448c0.392,0 0.784,-0.149 1.084,-0.449l0.492,-0.492c1.693,-1.693 2.626,-3.944 2.626,-6.339c-0,-1.869 -0.571,-3.649 -1.625,-5.146l0.934,-0.91Zm-23.887,3.429c-1.424,-1.424 -2.209,-3.319 -2.209,-5.334c0,-2.015 0.785,-3.909 2.209,-5.333c1.424,-1.425 3.318,-2.21 5.333,-2.21c2.015,0 3.908,0.785 5.332,2.21l0.738,0.738l-10.158,11.174l-1.245,-1.245Zm-1.269,8.566l14.841,-16.327l1.476,1.477l-3.108,3.215c-0.587,0.608 -0.571,1.578 0.037,2.166c0.298,0.287 0.681,0.43 1.065,0.43c0.4,0 0.8,-0.156 1.101,-0.467l6.358,-6.578c0.588,-0.608 0.571,-1.578 -0.037,-2.166c-0.608,-0.587 -1.578,-0.571 -2.166,0.037l-1.121,1.16l-1.543,-1.543l0.729,-0.801c0.688,-0.757 1.63,-1.192 2.652,-1.225c0.042,-0.002 0.084,-0.002 0.125,-0.002c0.976,-0 1.896,0.371 2.601,1.053c0.736,0.711 1.142,1.666 1.144,2.689c0.001,1.023 -0.402,1.979 -1.135,2.692l-18.786,18.282c-4.115,4.004 -8.307,7.959 -12.563,11.856l-3.045,-3.046c3.735,-4.366 7.529,-8.672 11.375,-12.902Zm-29.189,18.804c-1.294,-1.294 -2.007,-3.015 -2.007,-4.847c0,-1.831 0.713,-3.552 2.007,-4.846c1.294,-1.294 3.015,-2.007 4.846,-2.007c1.83,0 3.551,0.713 4.845,2.007l3.959,3.959c-2.965,3.501 -5.89,7.041 -8.772,10.612l-4.878,-4.878Zm1.413,14.168c4.679,-5.997 9.491,-11.915 14.41,-17.729l2.769,2.77c-5.627,5.098 -11.361,10.093 -17.179,14.959Zm42.147,-24.102c1.989,1.988 3.085,4.632 3.085,7.444c-0,2.812 -1.095,5.456 -3.085,7.445c-1.988,1.988 -4.632,3.083 -7.445,3.083c-2.812,-0 -5.456,-1.095 -7.444,-3.083l-5.643,-5.643c4.244,-3.889 8.425,-7.835 12.53,-11.829l2.747,-2.673l5.255,5.256Z" style="fill:#353638;fill-rule:nonzero;"/></svg>