<?xml version="1.0" encoding="UTF-8" standalone="no"?><!DOCTYPE svg PUBLIC "-//W3C//DTD SVG 1.1//EN" "http://www.w3.org/Graphics/SVG/1.1/DTD/svg11.dtd"><svg width="100%" height="100%" viewBox="0 0 79 79" version="1.1" xmlns="http://www.w3.org/2000/svg" xmlns:xlink="http://www.w3.org/1999/xlink" xml:space="preserve" xmlns:serif="http://www.serif.com/" style="fill-rule:evenodd;clip-rule:evenodd;stroke-linecap:round;stroke-linejoin:round;stroke-miterlimit:2;"><rect id="Artboard1" x="-390.625" y="-78.125" width="781.25" height="625" style="fill:none;"/><path d="M21.875,34.644l46.294,-31.519l6.831,10.247l-0,10.247l-10.247,-0l0,10.247l-10.247,-0l0,10.247l-10.247,-0l0,10.246l-8.381,0m-2.89,5.807l-1.708,9.564l-5.465,4.099c-3.074,2.049 -7.173,1.366 -9.564,-1.708l-11.955,-16.737c-2.049,-3.074 -1.366,-7.173 1.708,-9.564l11.272,-7.856l15.712,22.202m-17.42,-12.638l-5.465,3.757l11.955,16.737l5.465,-4.099l-11.955,-16.395Z" style="fill:none;fill-rule:nonzero;stroke:#353638;stroke-width:3.13px;"/></svg>