<?xml version="1.0" encoding="UTF-8" standalone="no"?><!DOCTYPE svg PUBLIC "-//W3C//DTD SVG 1.1//EN" "http://www.w3.org/Graphics/SVG/1.1/DTD/svg11.dtd"><svg width="100%" height="100%" viewBox="0 0 79 79" version="1.1" xmlns="http://www.w3.org/2000/svg" xmlns:xlink="http://www.w3.org/1999/xlink" xml:space="preserve" xmlns:serif="http://www.serif.com/" style="fill-rule:evenodd;clip-rule:evenodd;stroke-linejoin:round;stroke-miterlimit:1.5;"><rect id="Artboard1" x="-234.375" y="-78.125" width="781.25" height="625" style="fill:none;"/><g><path d="M75,9.327c-0,-3.423 -2.779,-6.202 -6.202,-6.202l-59.471,0c-3.423,0 -6.202,2.779 -6.202,6.202l0,56.346c0,3.423 2.779,6.202 6.202,6.202l59.471,0c3.423,0 6.202,-2.779 6.202,-6.202l-0,-56.346Zm-3.125,0l-0,56.346c-0,1.698 -1.379,3.077 -3.077,3.077c-0,0 -59.471,0 -59.471,0c-1.698,0 -3.077,-1.379 -3.077,-3.077l-0,-56.346c-0,-1.698 1.379,-3.077 3.077,-3.077c0,0 59.471,0 59.471,0c1.698,0 3.077,1.379 3.077,3.077Z" style="fill:#353638;"/><path d="M68.75,15.548c0,-3.407 -2.766,-6.173 -6.173,-6.173l-47.029,0c-3.407,0 -6.173,2.766 -6.173,6.173l0,43.904c0,3.407 2.766,6.173 6.173,6.173l47.029,0c3.407,0 6.173,-2.766 6.173,-6.173l0,-43.904Zm-3.125,-0l0,43.904c0,1.682 -1.366,3.048 -3.048,3.048c0,0 -47.029,0 -47.029,0c-1.682,0 -3.048,-1.366 -3.048,-3.048l0,-43.904c0,-1.682 1.366,-3.048 3.048,-3.048c-0,0 47.029,0 47.029,0c1.682,0 3.048,1.366 3.048,3.048Z" style="fill:#353638;"/><path d="M40.625,37.715c0,-0.108 -0.087,-0.195 -0.195,-0.195l-12.11,0c-0.108,0 -0.195,0.087 -0.195,0.195l0,8.965c0,0.108 0.087,0.195 0.195,0.195l12.11,0c0.108,0 0.195,-0.087 0.195,-0.195l0,-8.965Z" style="fill:#353638;"/><path d="M12.5,42.198l18.75,-0" style="fill:none;stroke:#353638;stroke-width:3.13px;"/><path d="M37.5,42.198l28.125,-0" style="fill:none;stroke:#353638;stroke-width:3.12px;"/><path d="M52.019,59.085c0,0 -18.773,0.047 -24.732,0.061c-0.99,0.003 -1.792,0.807 -1.792,1.797c-0,0.001 -0,0.002 -0,0.002l27.439,0l-0,-0.529c-0,-0.829 -0.329,-1.624 -0.915,-2.21c-0.587,-0.586 -1.381,-0.915 -2.21,-0.915c-4.049,0 -10.595,0 -10.595,0c-3.533,0 -6.402,-2.946 -6.402,-6.575l-0,-6.966" style="fill:none;stroke:#353638;stroke-width:3.13px;stroke-linejoin:miter;"/><path d="M17.111,71.94c0,-0.036 -0.029,-0.065 -0.065,-0.065l-7.187,0c-0.036,0 -0.065,0.029 -0.065,0.065l0,2.995c0,0.036 0.029,0.065 0.065,0.065l7.187,0c0.036,0 0.065,-0.029 0.065,-0.065l0,-2.995Z" style="fill:#353638;"/><path d="M68.331,71.94c-0,-0.036 -0.029,-0.065 -0.065,-0.065l-7.187,0c-0.036,0 -0.065,0.029 -0.065,0.065l-0,2.995c-0,0.036 0.029,0.065 0.065,0.065l7.187,0c0.036,0 0.065,-0.029 0.065,-0.065l-0,-2.995Z" style="fill:#353638;"/></g></svg>