<?xml version="1.0" encoding="UTF-8" standalone="no"?><!DOCTYPE svg PUBLIC "-//W3C//DTD SVG 1.1//EN" "http://www.w3.org/Graphics/SVG/1.1/DTD/svg11.dtd"><svg width="100%" height="100%" viewBox="0 0 79 79" version="1.1" xmlns="http://www.w3.org/2000/svg" xmlns:xlink="http://www.w3.org/1999/xlink" xml:space="preserve" xmlns:serif="http://www.serif.com/" style="fill-rule:evenodd;clip-rule:evenodd;stroke-linejoin:round;stroke-miterlimit:2;"><rect id="Artboard1" x="-156.25" y="0" width="781.25" height="625" style="fill:none;"/><path d="M71.875,56.25l-6.25,0l-0,-14.062c-0,-0.166 -0.022,-0.329 -0.025,-0.494l6.125,-2.447c0.091,0.972 0.15,1.95 0.15,2.941l-0,14.062Zm-0,12.5l-6.25,0l-0,-9.375l6.25,0l-0,9.375Zm-13.253,-44.487l3.556,-5.335c4.6,4.575 7.841,10.503 9.103,17.131l-5.953,2.379c-0.769,-5.432 -3.169,-10.322 -6.706,-14.175m3.878,44.487l-46.875,0l-0,-26.562c-0,-12.922 10.512,-23.438 23.437,-23.438c12.925,0 23.438,10.516 23.438,23.438l-0,26.562Zm-55.653,-32.691c1.259,-6.628 4.5,-12.556 9.103,-17.131l3.553,5.335c-3.534,3.853 -5.937,8.743 -6.706,14.175l-5.95,-2.379Zm5.653,6.129l-0,14.062l-6.25,0l-0,-14.062c-0,-0.991 0.062,-1.969 0.15,-2.941l6.125,2.447c-0.003,0.165 -0.025,0.328 -0.025,0.494m-0,26.562l-6.25,0l-0,-9.375l6.25,0l-0,9.375Zm25,-59.294l-0,6.25c-5.991,0.35 -11.444,2.666 -15.719,6.338l-3.487,-5.231c5.281,-4.332 11.943,-7.013 19.206,-7.357m3.125,0c7.262,0.344 13.925,3.025 19.209,7.357l-3.49,5.231c-4.275,-3.672 -9.728,-5.988 -15.719,-6.338l-0,-6.25Zm35.937,59.294l-1.562,0l-0,-26.562c-0,-19.847 -16.088,-35.938 -35.938,-35.938c-19.846,0 -35.937,16.091 -35.937,35.938l-0,26.562l-1.563,0c-0.862,0 -1.562,0.703 -1.562,1.563c-0,0.865 0.7,1.562 1.562,1.562l75,0c0.866,0 1.563,-0.697 1.563,-1.562c-0,-0.86 -0.697,-1.563 -1.563,-1.563" style="fill:#353638;fill-rule:nonzero;"/><path d="M43.994,31.25c-7.338,0 -16.119,6.612 -16.119,15.75c-0,6.472 5.037,12.375 11.516,12.375c5.178,0 10.359,-4.497 10.359,-8.997c-0,-8.581 -9.497,-11.531 -5.756,-19.128Zm-0.485,11.844c1.672,2.372 3.116,4.422 3.116,7.284c-0,2.51 -3.575,5.872 -7.234,5.872c-4.547,0 -8.391,-4.234 -8.391,-9.25c-0,-5.553 4.262,-10.134 8.994,-11.872c0.159,3.206 1.962,5.766 3.515,7.966Z" style="fill:#353638;"/><g><path d="M153.125,87.452c-0,-3.423 -2.779,-6.202 -6.202,-6.202l-59.471,0c-3.423,0 -6.202,2.779 -6.202,6.202l0,56.346c0,3.423 2.779,6.202 6.202,6.202l59.471,0c3.423,0 6.202,-2.779 6.202,-6.202l-0,-56.346Zm-3.125,0l-0,56.346c-0,1.698 -1.379,3.077 -3.077,3.077c-0,0 -59.471,0 -59.471,0c-1.698,0 -3.077,-1.379 -3.077,-3.077l-0,-56.346c-0,-1.698 1.379,-3.077 3.077,-3.077c0,0 59.471,0 59.471,0c1.698,0 3.077,1.379 3.077,3.077Z" style="fill:#353638;"/></g></svg>