<?xml version="1.0" encoding="UTF-8" standalone="no"?><!DOCTYPE svg PUBLIC "-//W3C//DTD SVG 1.1//EN" "http://www.w3.org/Graphics/SVG/1.1/DTD/svg11.dtd"><svg width="100%" height="100%" viewBox="0 0 79 79" version="1.1" xmlns="http://www.w3.org/2000/svg" xmlns:xlink="http://www.w3.org/1999/xlink" xml:space="preserve" xmlns:serif="http://www.serif.com/" style="fill-rule:evenodd;clip-rule:evenodd;stroke-linejoin:round;stroke-miterlimit:2;"><rect id="Artboard1" x="0" y="0" width="781.25" height="625" style="fill:none;"/><path d="M71.875,28.125l-6.25,0l-0,-3.125l6.25,0l-0,3.125Zm-12.5,25l-6.25,0l-0,-3.125l6.25,0l-0,3.125Zm-12.5,0l-6.25,0l-0,-3.125l6.25,0l-0,3.125Zm12.5,-25l-6.25,0l-0,-3.125l6.25,0l-0,3.125Zm-12.5,0l-6.25,0l-0,-3.125l6.25,0l-0,3.125Zm28.125,15.941c-6.113,1.243 -10.941,6.071 -12.184,12.184l-25.316,0l-0,-34.375l37.5,0l-0,22.191Zm-71.875,-34.691l34.375,0l-0,3.125l-34.375,0l-0,-3.125Zm3.125,53.125l-0,-46.875l28.125,0l-0,46.875l-28.125,0Zm31.25,6.25l-34.375,0l-0,-3.125l34.375,0l-0,3.125Zm-8.503,6.25l-17.369,0l-1.044,-3.125l19.457,0l-1.044,3.125Zm-17.369,-71.875l17.369,0l1.044,3.125l-19.454,0l1.041,-3.125Zm63.372,15.625l-37.5,0l-0,-3.125c1.725,0 3.125,-1.397 3.125,-3.125l-0,-3.125c-0,-1.728 -1.4,-3.125 -3.125,-3.125l-4.166,0l-1.372,-4.113c-0.425,-1.278 -1.618,-2.137 -2.965,-2.137l-17.369,0c-1.344,0 -2.541,0.859 -2.966,2.137l-1.371,4.113l-4.166,0c-1.725,0 -3.125,1.397 -3.125,3.125l-0,3.125c-0,1.728 1.4,3.125 3.125,3.125l-0,46.875c-1.725,0 -3.125,1.397 -3.125,3.125l-0,3.125c-0,1.728 1.4,3.125 3.125,3.125l4.166,0l1.371,4.113c0.425,1.278 1.622,2.137 2.966,2.137l17.369,0c1.347,0 2.54,-0.859 2.965,-2.137l1.372,-4.113l4.166,0c1.725,0 3.125,-1.397 3.125,-3.125l-0,-3.125c-0,-1.728 -1.4,-3.125 -3.125,-3.125l-0,-3.125l28.125,0c-0,-6.903 5.597,-12.5 12.5,-12.5l-0,-25c-0,-1.728 -1.4,-3.125 -3.125,-3.125" style="fill:#353638;fill-rule:nonzero;"/></svg>