<?xml version="1.0" encoding="UTF-8" standalone="no"?><!DOCTYPE svg PUBLIC "-//W3C//DTD SVG 1.1//EN" "http://www.w3.org/Graphics/SVG/1.1/DTD/svg11.dtd"><svg width="100%" height="100%" viewBox="0 0 79 79" version="1.1" xmlns="http://www.w3.org/2000/svg" xmlns:xlink="http://www.w3.org/1999/xlink" xml:space="preserve" xmlns:serif="http://www.serif.com/" style="fill-rule:evenodd;clip-rule:evenodd;stroke-linejoin:round;stroke-miterlimit:2;"><rect id="Artboard1" x="-546.875" y="-78.125" width="781.25" height="625" style="fill:none;"/><path d="M50,50l-6.25,0l0,-6.25l6.25,0l0,6.25Zm12.5,10.938c0,0.859 -0.7,1.562 -1.562,1.562l-43.75,0c-0.863,0 -1.563,-0.703 -1.563,-1.562l0,-43.75c0,-0.86 0.7,-1.563 1.563,-1.563l43.75,0c0.862,0 1.562,0.703 1.562,1.563l0,43.75Zm7.813,-20.313c0.862,0 1.562,-0.7 1.562,-1.562c0,-0.863 -0.7,-1.563 -1.562,-1.563l-4.688,0l0,-12.5l4.688,0c0.862,0 1.562,-0.7 1.562,-1.562c0,-0.863 -0.7,-1.563 -1.562,-1.563l-4.688,0l0,-4.687c0,-2.588 -2.097,-4.688 -4.687,-4.688l-4.688,0l0,-4.687c0,-0.863 -0.7,-1.563 -1.562,-1.563c-0.863,0 -1.563,0.7 -1.563,1.563l0,4.687l-12.5,0l0,-4.687c0,-0.863 -0.7,-1.563 -1.562,-1.563c-0.863,0 -1.563,0.7 -1.563,1.563l0,4.687l-12.5,0l0,-4.687c0,-0.863 -0.7,-1.563 -1.562,-1.563c-0.863,0 -1.563,0.7 -1.563,1.563l0,4.687l-4.687,0c-2.591,0 -4.688,2.1 -4.688,4.688l0,4.687l-4.687,0c-0.863,0 -1.563,0.7 -1.563,1.563c0,0.862 0.7,1.562 1.563,1.562l4.687,0l0,12.5l-4.687,0c-0.863,0 -1.563,0.7 -1.563,1.563c0,0.862 0.7,1.562 1.563,1.562l4.687,0l0,12.5l-4.687,0c-0.863,0 -1.563,0.7 -1.563,1.563c0,0.862 0.7,1.562 1.563,1.562l4.687,0l0,4.688c0,2.587 2.097,4.687 4.688,4.687l4.687,0l0,4.688c0,0.862 0.7,1.562 1.563,1.562c0.862,0 1.562,-0.7 1.562,-1.562l0,-4.688l12.5,0l0,4.688c0,0.862 0.7,1.562 1.563,1.562c0.862,0 1.562,-0.7 1.562,-1.562l0,-4.688l12.5,0l0,4.688c0,0.862 0.7,1.562 1.563,1.562c0.862,0 1.562,-0.7 1.562,-1.562l0,-4.688l4.688,0c2.59,0 4.687,-2.1 4.687,-4.687l0,-4.688l4.688,0c0.862,0 1.562,-0.7 1.562,-1.562c0,-0.863 -0.7,-1.563 -1.562,-1.563l-4.688,0l0,-12.5l4.688,0Zm-17.188,12.5l-28.125,0l0,-28.125l28.125,0l0,28.125Zm0,-31.25l-28.125,0c-1.725,0 -3.125,1.397 -3.125,3.125l0,28.125c0,1.728 1.4,3.125 3.125,3.125l28.125,0c1.725,0 3.125,-1.397 3.125,-3.125l0,-28.125c0,-1.728 -1.4,-3.125 -3.125,-3.125" style="fill:#353638;fill-rule:nonzero;"/></svg>