<?xml version="1.0" encoding="UTF-8" standalone="no"?><!DOCTYPE svg PUBLIC "-//W3C//DTD SVG 1.1//EN" "http://www.w3.org/Graphics/SVG/1.1/DTD/svg11.dtd"><svg width="100%" height="100%" viewBox="0 0 79 79" version="1.1" xmlns="http://www.w3.org/2000/svg" xmlns:xlink="http://www.w3.org/1999/xlink" xml:space="preserve" xmlns:serif="http://www.serif.com/" style="fill-rule:evenodd;clip-rule:evenodd;stroke-linejoin:round;stroke-miterlimit:2;"><rect id="Artboard1" x="-625" y="0" width="781.25" height="625" style="fill:none;"/><path d="M75,60.938c0,2.584 -2.103,4.687 -4.688,4.687l-62.499,0c-2.585,0 -4.688,-2.103 -4.688,-4.687l0,-1.563l28.125,0l0,3.125l15.625,0l0,-3.125l28.125,0l0,1.563Zm-68.75,-46.875c0,-0.86 0.7,-1.563 1.563,-1.563l62.499,0c0.863,0 1.563,0.703 1.563,1.563l0,42.187l-65.625,0l0,-42.187Zm68.75,42.187l0,-42.187c0,-2.585 -2.103,-4.688 -4.688,-4.688l-62.499,0c-2.585,0 -4.688,2.103 -4.688,4.688l0,42.187l-3.125,0l0,4.688c0,4.309 3.506,7.812 7.813,7.812l62.5,0c4.306,0 7.812,-3.503 7.812,-7.812l0,-4.688l-3.125,0Z" style="fill:#353638;fill-rule:nonzero;"/></svg>